<svg width="654" height="650" viewBox="0 0 654 650" fill="none" xmlns="http://www.w3.org/2000/svg">
<path d="M581.667 309.713C581.667 167.408 466.231 52.0464 323.834 52.0464C181.436 52.0464 66 167.408 66 309.713C66 452.018 181.436 567.379 323.834 567.379C466.231 567.379 581.667 452.018 581.667 309.713Z" fill="#7B4AE2" fill-opacity="0.2"/>
<g filter="url(#filter0_d_103_2487)">
<circle cx="567.81" cy="396.81" r="35.8102" fill="#090E16"/>
</g>
<path d="M553 380.25L555.667 409.175L568 412.75L580.5 409.175L583 380.25H553ZM576.333 390H563L563.333 393.25H576.333L575.333 403.975L568.333 406.25L561.167 403.975L560.667 399.1H564L564.333 401.375L568.333 402.675L572.167 401.538L572.667 396.663H560.333L559.667 386.75H577L576.333 390Z" fill="#8B73D7"/>
<g filter="url(#filter1_d_103_2487)">
<circle cx="524.81" cy="148.81" r="35.8102" fill="#090E16"/>
</g>
<g clip-path="url(#clip0_103_2487)">
<path fill-rule="evenodd" clip-rule="evenodd" d="M539.918 130.905H509.703C508.158 130.905 506.905 132.158 506.905 133.703V163.918C506.905 165.463 508.158 166.715 509.703 166.715H539.918C541.463 166.715 542.715 165.463 542.715 163.918V133.703C542.715 132.158 541.463 130.905 539.918 130.905ZM527.96 162.812V158.948C528.661 159.536 529.422 159.977 530.244 160.27C531.066 160.564 531.895 160.711 532.733 160.711C533.225 160.711 533.654 160.667 534.02 160.578C534.387 160.49 534.693 160.367 534.939 160.21C535.184 160.053 535.368 159.868 535.488 159.655C535.609 159.441 535.67 159.21 535.67 158.96C535.67 158.622 535.573 158.32 535.38 158.055C535.186 157.789 534.922 157.544 534.588 157.318C534.254 157.093 533.857 156.876 533.398 156.667C532.939 156.457 532.443 156.244 531.912 156.027C530.558 155.463 529.549 154.775 528.885 153.962C528.22 153.149 527.888 152.167 527.888 151.016C527.888 150.114 528.069 149.34 528.432 148.692C528.794 148.044 529.288 147.511 529.912 147.092C530.536 146.673 531.259 146.366 532.081 146.169C532.903 145.971 533.772 145.873 534.691 145.873C535.593 145.873 536.393 145.927 537.089 146.036C537.786 146.144 538.429 146.311 539.017 146.537V150.147C538.727 149.946 538.41 149.768 538.068 149.616C537.726 149.462 537.373 149.336 537.011 149.235C536.648 149.134 536.288 149.06 535.929 149.012C535.571 148.964 535.231 148.939 534.908 148.939C534.465 148.939 534.062 148.982 533.7 149.066C533.337 149.151 533.031 149.269 532.782 149.422C532.532 149.575 532.339 149.758 532.202 149.972C532.065 150.185 531.996 150.424 531.996 150.69C531.996 150.98 532.073 151.239 532.226 151.469C532.379 151.698 532.596 151.915 532.878 152.121C533.16 152.326 533.503 152.527 533.905 152.724C534.308 152.922 534.763 153.125 535.271 153.334C535.964 153.624 536.586 153.932 537.138 154.258C537.689 154.584 538.163 154.952 538.557 155.363C538.952 155.773 539.254 156.242 539.464 156.769C539.673 157.296 539.778 157.91 539.778 158.61C539.778 159.576 539.595 160.387 539.228 161.043C538.862 161.699 538.364 162.23 537.736 162.637C537.108 163.043 536.376 163.335 535.543 163.512C534.709 163.689 533.829 163.778 532.903 163.778C531.952 163.778 531.048 163.697 530.19 163.536C529.332 163.375 528.589 163.134 527.96 162.812ZM526.489 149.334H521.521V163.498H517.585V149.334H512.641V146.152H526.489V149.334Z" fill="#8C76D5"/>
</g>
<g filter="url(#filter2_d_103_2487)">
<circle cx="85.8102" cy="239.794" r="35.8102" fill="#090E16"/>
</g>
<path d="M99.2073 233.496C98.7898 233.352 98.3571 233.216 97.9116 233.088C97.9849 232.789 98.0521 232.494 98.1118 232.204C99.0926 227.443 98.4513 223.608 96.2616 222.345C94.1619 221.134 90.7279 222.396 87.2599 225.415C86.9264 225.705 86.5919 226.012 86.2577 226.334C86.0349 226.121 85.8125 225.915 85.5907 225.718C81.9561 222.491 78.3129 221.131 76.1253 222.397C74.0276 223.612 73.4064 227.217 74.2892 231.729C74.3745 232.165 74.4741 232.61 74.5868 233.063C74.0712 233.209 73.5734 233.365 73.0972 233.531C68.8359 235.017 66.1145 237.345 66.1145 239.76C66.1145 242.255 69.036 244.757 73.4744 246.274C73.8246 246.393 74.1881 246.507 74.5626 246.614C74.441 247.103 74.3353 247.583 74.2465 248.051C73.4047 252.484 74.0621 256.005 76.1542 257.211C78.3152 258.458 81.9419 257.177 85.4734 254.09C85.7525 253.846 86.0326 253.587 86.3132 253.316C86.677 253.666 87.0401 253.997 87.4014 254.308C90.822 257.252 94.2005 258.441 96.2906 257.231C98.4495 255.981 99.1511 252.199 98.2402 247.598C98.1706 247.246 98.0897 246.887 97.9988 246.522C98.2534 246.447 98.5035 246.369 98.7473 246.288C103.361 244.759 106.364 242.288 106.364 239.76C106.364 237.336 103.554 234.992 99.2073 233.496ZM98.2065 244.656C97.9864 244.729 97.7606 244.799 97.5305 244.868C97.0211 243.255 96.3336 241.54 95.4923 239.769C96.2952 238.039 96.9561 236.346 97.4512 234.744C97.8629 234.863 98.2625 234.989 98.6476 235.122C102.372 236.404 104.644 238.3 104.644 239.76C104.644 241.316 102.191 243.336 98.2065 244.656ZM96.5534 247.932C96.9562 249.966 97.0137 251.806 96.7469 253.244C96.5072 254.536 96.0251 255.398 95.4291 255.743C94.1606 256.477 91.4481 255.522 88.5227 253.005C88.1873 252.716 87.8496 252.408 87.5107 252.082C88.6448 250.842 89.7782 249.4 90.8845 247.798C92.8302 247.626 94.6685 247.344 96.3356 246.958C96.4177 247.289 96.4906 247.614 96.5534 247.932ZM79.8363 255.616C78.597 256.053 77.61 256.066 77.0134 255.722C75.7438 254.99 75.216 252.163 75.9359 248.371C76.0184 247.937 76.1165 247.491 76.2297 247.035C77.8785 247.4 79.7033 247.662 81.6537 247.82C82.7674 249.387 83.9336 250.828 85.1088 252.089C84.852 252.337 84.5963 252.573 84.3419 252.795C82.7803 254.16 81.2154 255.129 79.8363 255.616ZM74.0305 244.647C72.0679 243.976 70.4471 243.104 69.3361 242.153C68.3379 241.298 67.8339 240.449 67.8339 239.76C67.8339 238.295 70.0189 236.425 73.6631 235.155C74.1053 235.001 74.5682 234.855 75.0486 234.719C75.5522 236.357 76.2129 238.07 77.0102 239.802C76.2026 241.56 75.5325 243.3 75.0239 244.958C74.6815 244.859 74.3497 244.756 74.0305 244.647ZM75.9766 231.399C75.2202 227.533 75.7226 224.617 76.9867 223.886C78.3332 223.106 81.3108 224.217 84.449 227.004C84.6496 227.182 84.851 227.369 85.053 227.561C83.8836 228.817 82.728 230.247 81.6242 231.804C79.7313 231.98 77.9193 232.262 76.2533 232.639C76.1486 232.218 76.0558 231.804 75.9766 231.399ZM93.3382 235.686C92.94 234.998 92.5311 234.327 92.1143 233.673C93.3985 233.836 94.6289 234.051 95.7843 234.315C95.4375 235.427 95.0051 236.589 94.4961 237.781C94.131 237.087 93.7449 236.389 93.3382 235.686ZM86.2582 228.79C87.0513 229.649 87.8455 230.609 88.6267 231.65C87.8395 231.612 87.0426 231.593 86.239 231.593C85.4431 231.593 84.652 231.612 83.8697 231.648C84.6516 230.617 85.4527 229.659 86.2582 228.79ZM79.1329 235.698C78.735 236.388 78.356 237.083 77.9967 237.779C77.496 236.592 77.0676 235.424 76.7177 234.297C77.8661 234.04 79.0907 233.83 80.3667 233.67C79.944 234.33 79.5318 235.006 79.1329 235.698V235.698ZM80.4034 245.973C79.0851 245.826 77.8421 245.627 76.694 245.377C77.0495 244.229 77.4873 243.036 77.9986 241.823C78.3589 242.519 78.7394 243.215 79.1397 243.906H79.1397C79.5474 244.61 79.9699 245.3 80.4034 245.973ZM86.3058 250.852C85.4909 249.972 84.678 249 83.8841 247.953C84.6548 247.984 85.4405 247.999 86.239 247.999C87.0594 247.999 87.8704 247.981 88.6686 247.945C87.8849 249.01 87.0935 249.984 86.3058 250.852ZM94.5125 241.761C95.0505 242.988 95.504 244.174 95.8641 245.302C94.6971 245.568 93.4371 245.783 92.1096 245.942C92.5274 245.28 92.9398 244.597 93.3451 243.894C93.7551 243.183 94.1444 242.471 94.5125 241.761ZM91.8557 243.035C91.2266 244.126 90.5806 245.167 89.9249 246.15C88.7305 246.236 87.4966 246.28 86.239 246.28C84.9865 246.28 83.7681 246.241 82.5949 246.165C81.9127 245.169 81.2528 244.124 80.6276 243.044H80.6277C80.0042 241.968 79.4304 240.881 78.9104 239.802C79.4302 238.719 80.0026 237.632 80.6225 236.557L80.6224 236.557C81.2439 235.479 81.8981 234.44 82.574 233.45C83.771 233.36 84.9985 233.312 86.239 233.312H86.239C87.4851 233.312 88.7141 233.36 89.9108 233.451C90.5763 234.434 91.2261 235.47 91.8501 236.548C92.4812 237.638 93.0609 238.718 93.5852 239.777C93.0625 240.855 92.4841 241.945 91.8557 243.035ZM95.4027 223.834C96.7505 224.612 97.2747 227.746 96.4278 231.857C96.3738 232.119 96.313 232.386 96.2469 232.657C94.5771 232.272 92.7638 231.985 90.8654 231.807C89.7594 230.232 88.6133 228.8 87.463 227.561C87.7723 227.263 88.0811 226.979 88.3887 226.712C91.3601 224.126 94.1374 223.105 95.4027 223.834ZM86.239 236.166C88.224 236.166 89.8331 237.775 89.8331 239.76C89.8331 241.745 88.224 243.354 86.239 243.354C84.2541 243.354 82.6449 241.745 82.6449 239.76C82.6449 237.775 84.2541 236.166 86.239 236.166Z" fill="#8C76D5"/>
<g filter="url(#filter3_d_103_2487)">
<circle cx="105.81" cy="459.81" r="35.8102" fill="#090E16"/>
</g>
<path d="M94.5 442.581C92.975 442.581 91.5125 443.186 90.4341 444.265C89.3558 445.343 88.75 446.806 88.75 448.331V471.331C88.75 472.856 89.3558 474.318 90.4341 475.396C91.5125 476.475 92.975 477.081 94.5 477.081H117.5C119.025 477.081 120.488 476.475 121.566 475.396C122.644 474.318 123.25 472.856 123.25 471.331V448.331C123.25 446.806 122.644 445.343 121.566 444.265C120.488 443.186 119.025 442.581 117.5 442.581H94.5ZM108.557 467.603C109.937 468.714 111.313 469.261 112.689 469.247C113.532 469.247 114.18 469.094 114.629 468.783C114.838 468.647 115.009 468.459 115.123 468.237C115.238 468.016 115.293 467.768 115.282 467.518C115.285 467.246 115.228 466.977 115.116 466.729C115.003 466.482 114.838 466.262 114.631 466.085C114.18 465.692 113.329 465.299 112.078 464.904C110.575 464.469 109.414 463.907 108.599 463.217C107.798 462.527 107.392 461.565 107.376 460.329C107.376 459.162 107.882 458.186 108.894 457.398C109.879 456.613 111.137 456.218 112.67 456.218C114.805 456.218 116.521 456.737 117.812 457.778L116.337 460.076C115.805 459.663 115.196 459.361 114.545 459.19C113.959 458.995 113.348 458.888 112.731 458.874C112.003 458.874 111.418 459.008 110.981 459.275C110.546 459.543 110.33 459.894 110.33 460.329C110.33 460.808 110.596 461.214 111.129 461.552C111.666 461.876 112.578 462.234 113.87 462.627C115.43 463.091 116.542 463.71 117.201 464.482C117.862 465.255 118.192 466.24 118.192 467.434C118.192 468.657 117.722 469.711 116.779 470.597C115.852 471.469 114.502 471.925 112.731 471.967C110.412 471.967 108.472 471.271 106.912 469.88L108.557 467.603ZM97.9577 468.826C98.4081 469.107 98.9486 469.247 99.5811 469.247C100.242 469.247 100.789 469.057 101.226 468.678C101.661 468.285 101.879 467.603 101.879 466.633V456.471H104.725V467.181C104.683 468.839 104.206 470.035 103.292 470.765C102.793 471.189 102.211 471.505 101.584 471.693C101.003 471.87 100.399 471.962 99.7919 471.967C98.7377 471.967 97.8024 471.785 96.9878 471.419C96.1157 471.026 95.3855 470.33 94.7952 469.332L96.777 467.708C97.1412 468.201 97.536 468.573 97.9577 468.826Z" fill="#8C76D5"/>
<g filter="url(#filter4_f_103_2487)">
<circle cx="325.624" cy="305.148" r="255.148" fill="#7B4AE2" fill-opacity="0.2"/>
</g>
<g filter="url(#filter5_i_103_2487)">
<path fill-rule="evenodd" clip-rule="evenodd" d="M278.636 404.465C315.391 424.056 356.608 421.88 388.902 404.463V447.383L389.266 447.373V472.573H278.636V404.465Z" fill="#BB7D52"/>
<path fill-rule="evenodd" clip-rule="evenodd" d="M278.635 440.226C315.39 459.819 356.608 457.642 388.902 440.226V467.595L413.735 466.977L414.043 466.988C414.043 532.959 256.327 542.834 256.327 466.889L256.942 466.861L278.635 466.972V440.226Z" fill="#D08B5B"/>
<path fill-rule="evenodd" clip-rule="evenodd" d="M214.067 169.098C301.781 113.249 413.996 133.109 451.91 169.937C462.871 196.314 463.645 221.755 460.42 249.065C467.826 243.751 476.631 244.967 483.57 249.916C486.38 272.577 493.91 317.405 460.17 319.35C448.554 463.956 235.72 481.955 206.95 319.823C173.51 318.669 182.527 273.364 184.617 251.608C192.639 245.504 201.801 248.576 207.488 251.307L214.067 169.098Z" fill="#D08B5B"/>
<path fill-rule="evenodd" clip-rule="evenodd" d="M201.039 230.339C201.5 231.604 200.003 232.87 195.511 235.172C186.216 239.815 185.401 240.78 185.377 248.053V248.405C185.377 258.185 186.874 260.715 193.323 261.637C199.888 262.558 204.034 264.053 205.186 265.894C205.646 266.7 206.107 270.382 206.107 274.179C206.107 282.349 208.64 293.856 211.75 299.839C220.503 316.87 243.304 325.5 270.943 322.278C284.533 320.551 292.48 317.905 301.117 312.151C314.016 303.522 320.004 292.475 320.925 275.1C321.616 264.513 321.616 264.513 325.071 263.362C329.563 261.752 340.734 261.752 345.341 263.362C348.91 264.628 348.91 264.628 348.91 272.799C348.91 282.234 351.328 293.511 354.553 299.84C363.305 316.87 386.108 325.5 413.632 322.278C427.337 320.552 435.283 317.905 443.921 312.153C456.818 303.523 462.807 292.131 463.959 274.295C464.765 262.558 464.19 263.133 476.857 261.522C483.306 260.717 484.804 258.185 484.804 248.289C484.804 240.464 483.536 238.97 472.826 234.367L466.376 231.604L456.357 228.499L448.987 226.888C444.957 226.082 439.774 225.391 437.586 225.276C435.283 225.276 429.525 223.204 423.767 220.329C414.207 215.61 413.747 215.495 402.461 215.495C389.563 215.495 380.465 218.142 373.094 223.896C370.906 225.621 366.299 227.807 363.075 228.613C359.735 229.419 353.516 231.605 349.255 233.446C338.085 238.164 332.326 237.934 318.046 232.18C311.828 229.65 305.954 227.577 305.148 227.577C304.341 227.577 301.693 225.967 299.275 224.011C291.674 218.027 283.151 215.495 270.022 215.495C258.852 215.495 258.161 215.726 248.257 220.444C241.577 223.666 236.394 225.276 233.285 225.276C230.751 225.391 225.223 226.082 221.077 227.003L201.039 230.339ZM293.17 245.183C306.989 249.67 311.25 255.768 311.365 271.187C311.48 279.358 311.021 282.005 308.832 286.491C301.232 302.026 279.581 310.772 253.899 308.815C234.206 307.204 224.072 301.681 218.659 289.484C215.204 281.544 214.744 262.558 217.967 256.689C220.962 251.165 226.721 247.369 236.163 244.837C243.535 242.881 247.565 242.651 265.991 242.881C281.884 243.226 288.794 243.802 293.17 245.183ZM435.973 245.183C449.793 249.67 454.054 255.768 454.169 271.187C454.285 279.358 453.823 282.005 451.635 286.491C444.034 302.026 422.383 310.772 396.702 308.815C377.009 307.204 366.874 301.681 361.462 289.484C358.006 281.544 357.547 262.558 360.771 256.689C363.765 251.165 369.523 247.369 378.966 244.837C386.338 242.881 390.368 242.651 408.794 242.881C424.687 243.226 431.596 243.802 435.973 245.183Z" fill="#A66F49"/>
<path fill-rule="evenodd" clip-rule="evenodd" d="M304.226 56.6225L296.97 61.3407L293.285 57.7733C287.527 52.1353 284.763 53.1709 280.387 62.4914C277.738 68.2445 274.399 68.9354 268.64 65.1377C266.337 63.527 263.458 62.146 262.306 62.146C259.773 62.146 257.354 66.0582 256.318 71.2362C255.512 75.4938 252.748 79.406 250.444 79.406C249.638 79.406 246.643 78.3704 243.765 77.1045C239.388 75.1484 238.006 75.0333 235.588 76.0689C232.824 77.3348 232.594 78.025 232.594 85.6197C232.594 91.1432 231.788 95.4008 230.291 98.6227C228.102 103.455 227.987 103.571 222.575 103.571C213.592 103.571 209.331 108.058 213.707 113.006C216.011 115.422 214.513 117.954 210.022 118.99C201.73 121.061 199.311 126.354 203.803 131.992C206.912 136.019 206.797 136.595 201.845 138.897C196.663 141.428 195.857 144.305 199.196 147.872C201.73 150.634 201.73 150.748 200.348 165.938C198.966 180.666 199.427 221.746 201.039 226.003C201.5 227.269 200.003 228.535 195.511 230.836C186.068 235.554 185.377 236.474 185.377 244.069C185.377 253.85 186.874 256.381 193.324 257.302C199.888 258.222 204.033 259.718 205.186 261.559C205.646 262.365 206.107 266.047 206.107 269.844C206.107 278.014 208.64 289.521 211.75 295.504C220.502 312.535 243.304 321.164 270.944 317.943C284.534 316.217 292.48 313.57 301.117 307.817C314.015 299.187 320.004 288.14 320.925 270.765C321.616 260.178 321.616 260.178 325.071 259.028C329.563 257.417 340.733 257.417 345.34 259.028C348.91 260.294 348.91 260.294 348.91 268.464C348.91 277.9 351.328 289.176 354.553 295.505C363.306 312.535 386.108 321.165 413.632 317.944C427.337 316.217 435.283 313.571 443.921 307.818C456.819 299.188 462.807 287.796 463.959 269.96C464.765 258.223 464.189 258.799 476.857 257.187C483.306 256.382 484.804 253.85 484.804 243.955C484.804 236.13 483.536 234.634 472.826 230.032L466.377 227.27V215.763C466.262 196.086 463.498 182.163 458.661 177.675C457.048 176.18 453.479 173.878 450.6 172.497C446.108 170.311 445.187 170.196 443.805 171.692C442.423 173.073 442.768 174.339 446.224 181.243C450.484 189.758 454.285 204.141 455.551 216.569L456.358 224.164L448.987 222.552C444.956 221.747 439.774 221.057 437.586 220.942C435.283 220.942 429.524 218.87 423.766 215.994C414.207 211.276 413.747 211.16 402.461 211.16C389.562 211.16 380.464 213.807 373.094 219.56C370.906 221.287 366.299 223.473 363.075 224.279C359.735 225.084 353.516 227.27 349.255 229.111C338.085 233.829 332.326 233.599 318.046 227.845C311.827 225.314 305.954 223.243 305.147 223.243C304.342 223.243 301.693 221.632 299.274 219.676C291.674 213.692 283.151 211.16 270.022 211.16C258.852 211.16 258.16 211.391 248.256 216.108C241.577 219.33 236.394 220.942 233.285 220.942C230.752 221.057 225.224 221.747 221.078 222.667C209.331 225.199 210.252 226.695 211.173 207.363C211.865 190.794 214.053 176.756 216.587 171.922C219.466 166.514 242.268 154.892 264.84 147.298C292.825 137.977 324.265 134.41 359.735 136.827C390.138 138.783 398.2 141.314 431.828 159.38C443.575 165.709 454.515 170.772 457.049 171.117C461.195 171.692 461.54 171.462 462.807 168.009C465.571 160.07 463.383 140.048 458.776 130.958C455.322 124.284 455.091 121.752 457.049 114.848C458.43 110.015 458.43 108.98 456.704 106.448C455.091 104.032 453.939 103.572 449.333 103.572C446.339 103.687 441.732 104.147 439.083 104.607C434.362 105.528 434.246 105.528 434.822 102.536C437.125 91.2596 434.362 88.7278 423.19 91.6044C419.62 92.5249 416.281 93.1006 416.05 92.7551C415.705 92.4104 416.05 88.9581 416.857 85.1611C418.238 78.9474 418.123 77.9118 416.511 76.1853C414.783 74.5747 413.747 74.5747 407.067 75.8406C396.357 78.0269 392.326 76.9913 388.411 71.0073C384.38 65.139 380.695 63.0678 376.895 64.5633C374.821 65.3686 372.634 65.0239 368.488 63.1829C364.111 61.342 361.577 60.8814 357.662 61.4565C353.631 62.1473 351.443 61.6867 347.643 59.7307C343.728 57.7746 341.539 57.4292 336.817 58.0042C331.75 58.5799 329.908 58.1193 324.034 55.2428C320.349 53.4018 315.973 51.9057 314.361 51.7905C312.748 51.7905 308.257 53.9769 304.226 56.6238L304.226 56.6225ZM293.17 240.847C306.99 245.335 311.251 251.434 311.366 266.853C311.481 275.022 311.02 277.669 308.832 282.157C301.231 297.691 279.581 306.436 253.899 304.48C234.206 302.869 224.072 297.346 218.659 285.148C215.204 277.209 214.743 258.222 217.968 252.354C220.962 246.831 226.72 243.034 236.163 240.502C243.535 238.546 247.565 238.315 265.991 238.546C281.884 238.891 288.793 239.466 293.17 240.847ZM435.973 240.847C449.793 245.335 454.054 251.434 454.169 266.853C454.284 275.022 453.823 277.669 451.635 282.157C444.034 297.691 422.384 306.436 396.702 304.48C377.009 302.869 366.875 297.346 361.462 285.148C358.007 277.209 357.546 258.222 360.771 252.354C363.765 246.831 369.523 243.034 378.966 240.502C386.338 238.546 390.368 238.315 408.794 238.546C424.687 238.891 431.596 239.466 435.973 240.847Z" fill="#2C1B18"/>
<path fill-rule="evenodd" clip-rule="evenodd" d="M256.087 254.771C249.983 257.647 242.958 264.897 242.958 268.349C242.958 270.995 244.8 270.995 248.371 268.119C257.699 260.754 277.507 260.754 287.641 268.003C289.599 269.269 291.672 270.419 292.363 270.419C294.782 270.419 293.63 266.277 289.945 261.904C285.108 255.921 276.471 252.009 268.294 252.009C264.033 252.009 260.002 252.929 256.087 254.77V254.771Z" fill="#533824"/>
<path fill-rule="evenodd" clip-rule="evenodd" d="M389.677 254.771C383.574 257.647 376.548 264.897 376.548 268.349C376.548 270.995 378.391 270.995 381.961 268.119C391.289 260.754 411.098 260.754 421.232 268.003C423.19 269.269 425.263 270.419 425.954 270.419C428.372 270.419 427.221 266.277 423.535 261.904C418.699 255.921 410.062 252.009 401.885 252.009C397.624 252.009 393.593 252.929 389.678 254.77L389.677 254.771Z" fill="#533824"/>
<path fill-rule="evenodd" clip-rule="evenodd" d="M308.256 309.773C309.524 314.721 313.209 318.634 319.657 321.741C324.84 324.272 327.489 324.848 335.09 324.848C342.69 324.848 345.339 324.272 350.521 321.741C356.971 318.634 360.656 314.722 361.922 309.773L362.499 307.242H335.09H307.68L308.256 309.773Z" fill="#AF754C"/>
<path fill-rule="evenodd" clip-rule="evenodd" d="M201.039 226.003C201.5 227.269 200.003 228.535 195.511 230.836C186.216 235.479 185.401 236.446 185.377 243.718V244.07C185.377 253.85 186.874 256.381 193.323 257.302C199.888 258.222 204.034 259.718 205.186 261.559C205.646 262.365 206.107 266.047 206.107 269.844C206.107 278.014 208.64 289.522 211.75 295.504C220.503 312.535 243.304 321.164 270.943 317.943C284.533 316.216 292.48 313.57 301.117 307.817C314.016 299.187 320.004 288.141 320.925 270.765C321.616 260.178 321.616 260.178 325.071 259.028C329.563 257.418 340.734 257.418 345.341 259.028C348.91 260.293 348.91 260.293 348.91 268.464C348.91 277.899 351.328 289.176 354.553 295.506C363.305 312.535 386.108 321.164 413.632 317.943C427.337 316.217 435.283 313.57 443.921 307.818C456.818 299.188 462.807 287.796 463.959 269.96C464.765 258.222 464.19 258.799 476.857 257.187C483.306 256.382 484.804 253.85 484.804 243.954C484.804 236.13 483.536 234.635 472.826 230.032L466.376 227.269L456.357 224.164L448.987 222.552C444.957 221.747 439.774 221.056 437.586 220.941C435.283 220.941 429.525 218.87 423.767 215.994C414.207 211.276 413.747 211.16 402.461 211.16C389.563 211.16 380.465 213.807 373.094 219.561C370.906 221.286 366.299 223.473 363.075 224.278C359.735 225.084 353.516 227.27 349.255 229.111C338.085 233.829 332.326 233.599 318.046 227.845C311.828 225.315 305.954 223.242 305.148 223.242C304.341 223.242 301.693 221.632 299.275 219.676C291.674 213.692 283.151 211.16 270.022 211.16C258.852 211.16 258.161 211.391 248.257 216.109C241.577 219.331 236.394 220.941 233.285 220.941C230.751 221.056 225.223 221.747 221.077 222.667L201.039 226.003ZM293.17 240.848C306.989 245.336 311.25 251.434 311.365 266.853C311.48 275.023 311.021 277.67 308.832 282.156C301.232 297.691 279.581 306.437 253.899 304.479C234.206 302.869 224.072 297.346 218.659 285.149C215.204 277.209 214.744 258.222 217.967 252.354C220.962 246.83 226.721 243.034 236.163 240.502C243.535 238.546 247.565 238.316 265.991 238.546C281.884 238.89 288.794 239.467 293.17 240.848ZM435.973 240.848C449.793 245.336 454.054 251.434 454.169 266.853C454.285 275.023 453.823 277.67 451.635 282.156C444.034 297.691 422.383 306.437 396.702 304.479C377.009 302.869 366.874 297.346 361.462 285.149C358.006 277.209 357.547 258.222 360.771 252.354C363.765 246.83 369.523 243.034 378.966 240.502C386.338 238.546 390.368 238.316 408.794 238.546C424.687 238.89 431.596 239.467 435.973 240.848Z" fill="#090E16"/>
<path fill-rule="evenodd" clip-rule="evenodd" d="M302.959 356.03C304.456 365.581 311.711 375.362 320.694 379.965C327.258 383.417 339.351 384.107 346.261 381.461C356.626 377.434 365.609 366.617 367.221 356.03H302.959Z" fill="#3E291B"/>
<path fill-rule="evenodd" clip-rule="evenodd" d="M301.974 332.045C300.22 332.682 295.916 334.752 292.407 336.744C288.9 338.655 284.914 340.727 283.559 341.285C280.769 342.399 272.557 342.718 269.927 341.842C268.412 341.363 268.092 341.523 268.092 343.036C268.092 345.506 273.275 350.126 278.935 352.835C286.27 356.339 295.836 355.622 307.795 350.604C312.41 349.244 319.087 345.603 324.456 343.754C336.283 339.575 342.325 341.973 352.996 346.542L362.324 350.604C374.282 355.622 383.849 356.339 391.184 352.835C396.923 350.126 402.264 345.267 401.866 343.196C401.706 342.399 400.989 341.922 400.351 342.081C399.713 342.24 396.763 342.32 393.734 342.32C388.951 342.24 387.516 341.842 381.776 338.895C366.23 330.77 368.463 331.407 356.982 331.407C347.815 331.407 345.981 331.725 340.879 333.558L335.059 335.628L329.319 333.558C322.304 331.088 307.395 330.292 301.974 332.045Z" fill="#2C1B18" fill-opacity="0.301961"/>
<path d="M375.721 578.002L383.117 571.994C384.831 570.602 387.35 570.861 388.743 572.574C390.136 574.286 389.876 576.802 388.163 578.195L384.584 581.102L410.568 602.978C412.282 604.37 412.542 606.887 411.148 608.599C410.358 609.57 409.205 610.074 408.043 610.074C407.157 610.074 406.264 609.781 405.523 609.179L375.721 584.202C374.788 583.443 374.245 582.305 374.245 581.102C374.245 579.899 374.788 578.76 375.721 578.002Z" fill="#7B4AE2"/>
<path d="M408.561 541.293C410.684 541.31 412.392 543.043 412.375 545.165L412.044 606.263C412.027 608.384 410.292 610.091 408.169 610.074C407.631 610.07 407.12 609.955 406.656 609.752C405.292 609.154 404.342 607.786 404.354 606.201L404.685 545.104C404.702 542.982 406.437 541.276 408.561 541.293Z" fill="#7B4AE2"/>
<path d="M425.438 583.321L428.169 581.102L418.441 573.198C416.727 571.806 416.468 569.29 417.861 567.577C419.254 565.865 421.773 565.606 423.487 566.998L437.031 578.002C437.965 578.76 438.507 579.899 438.507 581.102C438.507 582.305 437.965 583.443 437.031 584.202L430.484 589.522C429.742 590.123 428.85 590.417 427.963 590.417C426.801 590.417 425.648 589.913 424.858 588.942C423.465 587.23 423.725 584.713 425.438 583.321Z" fill="#C83267"/>
<path fill-rule="evenodd" clip-rule="evenodd" d="M255.625 466.93C221.653 470.236 190.789 482.889 165.107 503.977C143.008 522.046 136.843 536.407 120.664 556.86C153.629 591.033 197.958 619.988 246.298 635.98C278.543 646.58 300.54 650 335.089 650C369.639 650 391.635 646.58 423.881 635.98C472.649 620.396 513.728 594.859 550.759 558.205C525.397 525.495 514.957 504.057 474.092 483.914C456.932 475.365 436.778 469.21 421.347 467.614L414.079 466.959L413.733 466.952L412.94 472.402C409.485 498.392 376.895 517.542 336.241 517.542C295.589 517.542 263.573 498.619 259.426 472.288C258.621 467.045 258.275 466.588 255.627 466.93H255.625Z" fill="#090E16"/>
<path fill-rule="evenodd" clip-rule="evenodd" d="M276.699 420.613L276.219 420.462C274.905 420.049 281.356 417.106 283.641 416.013C290.36 412.803 299.123 413.459 310.078 418.056C314.306 419.302 320.422 422.637 325.34 424.331C336.175 428.16 341.71 425.962 351.485 421.778L360.029 418.056C370.983 413.459 379.746 412.803 386.466 416.013C388.718 417.077 390.943 418.457 392.637 419.932L393.147 420.376C373.539 435.321 310.686 442.75 276.699 420.613Z" fill="#2C1B18" fill-opacity="0.501961"/>
<path d="M402.49 560.392L406.339 557.264C407.231 556.539 408.543 556.675 409.268 557.566C409.993 558.457 409.858 559.768 408.966 560.492L407.103 562.006L420.629 573.396C421.521 574.12 421.656 575.431 420.931 576.322C420.519 576.828 419.919 577.09 419.315 577.09C418.853 577.09 418.388 576.938 418.003 576.624L402.49 563.62C402.004 563.225 401.721 562.632 401.721 562.006C401.721 561.38 402.004 560.787 402.49 560.392Z" fill="white"/>
<path d="M419.584 541.28C420.689 541.289 421.578 542.191 421.569 543.296L421.397 575.106C421.388 576.211 420.485 577.099 419.38 577.09C419.1 577.088 418.834 577.028 418.593 576.923C417.882 576.611 417.388 575.899 417.394 575.074L417.567 543.264C417.575 542.16 418.478 541.271 419.584 541.28Z" fill="white"/>
<path d="M428.37 563.161L429.791 562.006L424.727 557.891C423.835 557.167 423.7 555.856 424.426 554.965C425.151 554.073 426.462 553.938 427.354 554.663L434.404 560.392C434.89 560.787 435.173 561.38 435.173 562.006C435.173 562.632 434.89 563.225 434.404 563.62L430.996 566.39C430.61 566.703 430.146 566.856 429.684 566.856C429.079 566.856 428.479 566.594 428.068 566.088C427.342 565.196 427.478 563.886 428.37 563.161Z" fill="#7B4AE2"/>
</g>
<defs>
<filter id="filter0_d_103_2487" x="482" y="315" width="171.621" height="171.62" filterUnits="userSpaceOnUse" color-interpolation-filters="sRGB">
<feFlood flood-opacity="0" result="BackgroundImageFix"/>
<feColorMatrix in="SourceAlpha" type="matrix" values="0 0 0 0 0 0 0 0 0 0 0 0 0 0 0 0 0 0 127 0" result="hardAlpha"/>
<feOffset dy="4"/>
<feGaussianBlur stdDeviation="25"/>
<feComposite in2="hardAlpha" operator="out"/>
<feColorMatrix type="matrix" values="0 0 0 0 0 0 0 0 0 0 0 0 0 0 0 0 0 0 0.5 0"/>
<feBlend mode="normal" in2="BackgroundImageFix" result="effect1_dropShadow_103_2487"/>
<feBlend mode="normal" in="SourceGraphic" in2="effect1_dropShadow_103_2487" result="shape"/>
</filter>
<filter id="filter1_d_103_2487" x="439" y="67" width="171.621" height="171.62" filterUnits="userSpaceOnUse" color-interpolation-filters="sRGB">
<feFlood flood-opacity="0" result="BackgroundImageFix"/>
<feColorMatrix in="SourceAlpha" type="matrix" values="0 0 0 0 0 0 0 0 0 0 0 0 0 0 0 0 0 0 127 0" result="hardAlpha"/>
<feOffset dy="4"/>
<feGaussianBlur stdDeviation="25"/>
<feComposite in2="hardAlpha" operator="out"/>
<feColorMatrix type="matrix" values="0 0 0 0 0 0 0 0 0 0 0 0 0 0 0 0 0 0 0.5 0"/>
<feBlend mode="normal" in2="BackgroundImageFix" result="effect1_dropShadow_103_2487"/>
<feBlend mode="normal" in="SourceGraphic" in2="effect1_dropShadow_103_2487" result="shape"/>
</filter>
<filter id="filter2_d_103_2487" x="0" y="157.984" width="171.621" height="171.62" filterUnits="userSpaceOnUse" color-interpolation-filters="sRGB">
<feFlood flood-opacity="0" result="BackgroundImageFix"/>
<feColorMatrix in="SourceAlpha" type="matrix" values="0 0 0 0 0 0 0 0 0 0 0 0 0 0 0 0 0 0 127 0" result="hardAlpha"/>
<feOffset dy="4"/>
<feGaussianBlur stdDeviation="25"/>
<feComposite in2="hardAlpha" operator="out"/>
<feColorMatrix type="matrix" values="0 0 0 0 0 0 0 0 0 0 0 0 0 0 0 0 0 0 0.5 0"/>
<feBlend mode="normal" in2="BackgroundImageFix" result="effect1_dropShadow_103_2487"/>
<feBlend mode="normal" in="SourceGraphic" in2="effect1_dropShadow_103_2487" result="shape"/>
</filter>
<filter id="filter3_d_103_2487" x="20" y="378" width="171.621" height="171.62" filterUnits="userSpaceOnUse" color-interpolation-filters="sRGB">
<feFlood flood-opacity="0" result="BackgroundImageFix"/>
<feColorMatrix in="SourceAlpha" type="matrix" values="0 0 0 0 0 0 0 0 0 0 0 0 0 0 0 0 0 0 127 0" result="hardAlpha"/>
<feOffset dy="4"/>
<feGaussianBlur stdDeviation="25"/>
<feComposite in2="hardAlpha" operator="out"/>
<feColorMatrix type="matrix" values="0 0 0 0 0 0 0 0 0 0 0 0 0 0 0 0 0 0 0.5 0"/>
<feBlend mode="normal" in2="BackgroundImageFix" result="effect1_dropShadow_103_2487"/>
<feBlend mode="normal" in="SourceGraphic" in2="effect1_dropShadow_103_2487" result="shape"/>
</filter>
<filter id="filter4_f_103_2487" x="20.4763" y="0" width="610.296" height="610.296" filterUnits="userSpaceOnUse" color-interpolation-filters="sRGB">
<feFlood flood-opacity="0" result="BackgroundImageFix"/>
<feBlend mode="normal" in="SourceGraphic" in2="BackgroundImageFix" result="shape"/>
<feGaussianBlur stdDeviation="25" result="effect1_foregroundBlur_103_2487"/>
</filter>
<filter id="filter5_i_103_2487" x="120.664" y="51.7905" width="430.095" height="602.209" filterUnits="userSpaceOnUse" color-interpolation-filters="sRGB">
<feFlood flood-opacity="0" result="BackgroundImageFix"/>
<feBlend mode="normal" in="SourceGraphic" in2="BackgroundImageFix" result="shape"/>
<feColorMatrix in="SourceAlpha" type="matrix" values="0 0 0 0 0 0 0 0 0 0 0 0 0 0 0 0 0 0 127 0" result="hardAlpha"/>
<feOffset dy="4"/>
<feGaussianBlur stdDeviation="2"/>
<feComposite in2="hardAlpha" operator="arithmetic" k2="-1" k3="1"/>
<feColorMatrix type="matrix" values="0 0 0 0 0 0 0 0 0 0 0 0 0 0 0 0 0 0 0.25 0"/>
<feBlend mode="normal" in2="shape" result="effect1_innerShadow_103_2487"/>
</filter>
<clipPath id="clip0_103_2487">
<rect width="35.8102" height="35.8102" fill="white" transform="translate(506.905 130.905)"/>
</clipPath>
</defs>
</svg>
