<svg width="85" height="85" viewBox="0 0 85 85" fill="none" xmlns="http://www.w3.org/2000/svg">
<rect width="85" height="85" rx="42.5" fill="#7B4AE2" fill-opacity="0.2"/>
<path d="M42.5098 41.8333H37.6798V34.11H43.4432C46.3832 34.11 48.0165 35.4166 48.0165 37.82C48.0165 40.4333 46.0798 41.8333 42.5098 41.8333ZM43.3732 44.47H37.6798V52.9633H43.6532C47.2932 52.9633 49.2065 51.4933 49.2065 48.6933C49.2065 45.8933 47.2232 44.47 43.3732 44.47ZM66.3332 27.39V58.61C66.3332 62.8333 62.8332 66.3333 58.6098 66.3333H27.3898C23.1665 66.3333 19.6665 62.8333 19.6665 58.61V27.39C19.6665 23.1666 23.1665 19.6666 27.3898 19.6666H58.6098C62.8332 19.6666 66.3332 23.1666 66.3332 27.39ZM52.3332 48.8333C52.3332 45.6133 50.1865 43.3033 46.8965 42.8833V42.7433C49.2298 42.3233 51.0732 39.99 51.0732 37.47C51.0732 33.8533 48.2732 31.45 44.1665 31.45H34.6698V55.6233H44.0965C49.2532 55.6233 52.3332 53.08 52.3332 48.8333Z" fill="#8C76D5"/>
</svg>
