<svg width="85" height="85" viewBox="0 0 85 85" fill="none" xmlns="http://www.w3.org/2000/svg">
<rect width="85" height="85" rx="42.5" fill="#7B4AE2" fill-opacity="0.2"/>
<g clip-path="url(#clip0_163_472)">
<path d="M43 16C28.042 16 16 28.042 16 43C16 57.958 28.042 70 43 70C57.958 70 70 57.958 70 43C70 28.042 57.958 16 43 16ZM49.3 25.7493C49.5925 25.7403 49.858 26.0553 49.6847 26.3748L42.8358 38.9298C42.8011 38.9938 42.7837 39.0657 42.7851 39.1384C42.7866 39.2112 42.8069 39.2824 42.8441 39.3449C42.8813 39.4075 42.934 39.4594 42.9973 39.4954C43.0605 39.5315 43.132 39.5506 43.2048 39.5508H55.0397C55.4222 39.5508 55.6068 40.0165 55.3278 40.2775L34.5828 59.6388C34.2115 59.9853 33.6602 59.497 33.9573 59.0853L43.7763 45.538C43.8213 45.4753 43.8481 45.4014 43.8539 45.3244C43.8597 45.2474 43.8443 45.1703 43.8092 45.1015C43.7741 45.0328 43.7208 44.975 43.655 44.9345C43.5893 44.894 43.5137 44.8724 43.4365 44.872H30.9107C30.8274 44.8718 30.746 44.8469 30.6769 44.8003C30.6077 44.7538 30.554 44.6878 30.5224 44.6107C30.4908 44.5335 30.4829 44.4488 30.4995 44.3671C30.5162 44.2855 30.5567 44.2106 30.616 44.152L49.021 25.8752C49.0948 25.7982 49.1934 25.753 49.3 25.7493Z" fill="#8C76D5"/>
</g>
<defs>
<clipPath id="clip0_163_472">
<rect width="54" height="54" fill="white" transform="translate(16 16)"/>
</clipPath>
</defs>
</svg>
