<svg width="85" height="85" viewBox="0 0 85 85" fill="none" xmlns="http://www.w3.org/2000/svg">
<rect width="85" height="85" rx="42.5" fill="#7B4AE2" fill-opacity="0.2"/>
<path d="M74.7037 37.4687C74.5312 37.3537 73.0938 36.2325 69.9888 36.2325C69.1838 36.2325 68.3787 36.3187 67.5737 36.4625C66.97 32.4375 63.6062 30.3962 63.4625 30.31L62.6288 29.8212L62.1113 30.5975C61.4213 31.6325 60.875 32.8112 60.645 34.0187C60.07 36.3187 60.415 38.5037 61.5938 40.3725C60.185 41.1775 57.885 41.3787 57.3962 41.3787H19.5325C18.555 41.3787 17.75 42.1837 17.75 43.19C17.75 46.4962 18.2675 49.8025 19.4175 52.9075C20.7112 56.3287 22.6662 58.8587 25.1675 60.4112C27.985 62.1362 32.6137 63.1137 37.875 63.1137C40.1463 63.1137 42.5038 62.9125 44.8325 62.4812C48.0525 61.9062 51.1575 60.785 54.0037 59.1462C56.361 57.7983 58.4709 56.0579 60.2425 54C63.2613 50.6362 65.0437 46.8125 66.3375 43.5062H66.8838C70.1613 43.5062 72.2025 42.1837 73.3237 41.0625C74.0712 40.3725 74.6175 39.5387 75.02 38.5612L75.25 37.8712L74.7037 37.4687ZM23.0687 40.315H28.1288C28.3588 40.315 28.5887 40.1137 28.5887 39.855V35.3125C28.5887 35.0825 28.3875 34.8525 28.1288 34.8525H23.0687C22.81 34.8525 22.6088 35.0537 22.6088 35.3125V39.855C22.6375 40.1137 22.81 40.315 23.0687 40.315ZM30.055 40.315H35.115C35.345 40.315 35.575 40.1137 35.575 39.855V35.3125C35.575 35.0825 35.3737 34.8525 35.115 34.8525H30.055C29.7963 34.8525 29.595 35.0537 29.595 35.3125V39.855C29.6237 40.1137 29.7963 40.315 30.055 40.315ZM37.1562 40.315H42.1875C42.475 40.315 42.6763 40.1137 42.6763 39.855V35.3125C42.6763 35.0825 42.5037 34.8525 42.1875 34.8525H37.1562C36.9263 34.8525 36.725 35.0537 36.725 35.3125V39.855C36.725 40.1137 36.8975 40.315 37.1562 40.315ZM44.1712 40.315H49.26C49.49 40.315 49.6912 40.1137 49.6912 39.855V35.3125C49.6912 35.0825 49.5188 34.8525 49.26 34.8525H44.1712C43.9412 34.8525 43.74 35.0537 43.74 35.3125V39.855C43.74 40.1137 43.9412 40.315 44.1712 40.315ZM30.055 33.875H35.115C35.345 33.875 35.575 33.6162 35.575 33.3575V28.8437C35.575 28.585 35.3737 28.3837 35.115 28.3837H30.055C29.7963 28.3837 29.595 28.5562 29.595 28.8437V33.3575C29.6237 33.6162 29.7963 33.875 30.055 33.875ZM37.1562 33.875H42.1875C42.475 33.875 42.6763 33.6162 42.6763 33.3575V28.8437C42.6763 28.585 42.5037 28.3837 42.1875 28.3837H37.1562C36.9263 28.3837 36.725 28.5562 36.725 28.8437V33.3575C36.725 33.6162 36.8975 33.875 37.1562 33.875ZM44.1712 33.875H49.26C49.49 33.875 49.6912 33.6162 49.6912 33.3575V28.8437C49.6912 28.585 49.49 28.3837 49.26 28.3837H44.1712C43.9412 28.3837 43.74 28.5562 43.74 28.8437V33.3575C43.74 33.6162 43.9412 33.875 44.1712 33.875ZM44.1712 27.32H49.26C49.49 27.32 49.6912 27.1187 49.6912 26.86V22.375C49.6912 22.0875 49.49 21.8862 49.26 21.8862H44.1712C43.9412 21.8862 43.74 22.0587 43.74 22.375V26.86C43.74 27.09 43.9412 27.32 44.1712 27.32ZM51.2437 40.315H56.3037C56.5625 40.315 56.7637 40.1137 56.7637 39.855V35.3125C56.7637 35.0825 56.5625 34.8525 56.3037 34.8525H51.2437C51.0137 34.8525 50.8125 35.0537 50.8125 35.3125V39.855C50.8125 40.1137 51.0137 40.315 51.2437 40.315Z" fill="#8C76D5"/>
</svg>
