<svg width="85" height="85" viewBox="0 0 85 85" fill="none" xmlns="http://www.w3.org/2000/svg">
<rect width="85" height="85" rx="42.5" fill="#7B4AE2" fill-opacity="0.2"/>
<g clip-path="url(#clip0_163_417)">
<path d="M55.75 19H30.25C24.0368 19 19 24.0368 19 30.25V55.75C19 61.9632 24.0368 67 30.25 67H55.75C61.9632 67 67 61.9632 67 55.75V30.25C67 24.0368 61.9632 19 55.75 19Z" fill="#8C76D5"/>
<path d="M61.75 53.3006C61.2042 53.5074 60.6015 53.507 60.0559 53.2995C59.5104 53.092 59.0597 52.6919 58.7892 52.1747C57.0899 49.6309 55.2134 47.2018 53.4098 44.7206L52.6278 43.6781C50.4801 46.5555 48.3325 49.3181 46.3726 52.1852C46.1173 52.6795 45.691 53.0641 45.1732 53.2675C44.6553 53.4708 44.0812 53.4789 43.5578 53.2903L51.6166 42.4793L44.1207 32.7105C44.6603 32.5157 45.2506 32.513 45.7919 32.7029C46.3332 32.8928 46.7924 33.2638 47.092 33.753C48.8329 36.297 50.7618 38.7261 52.6799 41.3012C54.6087 38.7469 56.5165 36.3073 58.2992 33.7843C58.5559 33.2981 58.9825 32.9231 59.4976 32.7309C60.0128 32.5387 60.5807 32.5426 61.0932 32.7418L58.1845 36.5993C56.8814 38.3194 55.5991 40.05 54.2438 41.7285C54.1345 41.8263 54.0471 41.946 53.9873 42.0798C53.9274 42.2137 53.8965 42.3586 53.8965 42.5052C53.8965 42.6519 53.9274 42.7968 53.9873 42.9307C54.0471 43.0645 54.1345 43.1842 54.2438 43.282C56.7355 46.5868 59.2062 49.902 61.75 53.3006ZM24.25 42.3437C24.469 41.3012 24.6044 40.1648 24.9068 39.1015C26.7104 32.6899 34.0602 30.0208 39.1165 33.993C42.0773 36.318 42.8176 39.6124 42.6717 43.3238H25.9911C25.72 49.9543 30.5052 53.9576 36.6248 51.9143C37.6175 51.5591 38.5061 50.9624 39.2105 50.1779C39.9149 49.3934 40.4129 48.4459 40.6594 47.4208C40.9827 46.3783 41.5039 46.2011 42.4943 46.5034C42.3312 47.7726 41.8825 48.9883 41.1819 50.0591C40.4813 51.1299 39.547 52.0279 38.4494 52.6856C36.6358 53.6775 34.555 54.0704 32.5047 53.8083C30.4543 53.5461 28.5393 52.6423 27.0336 51.2261C25.544 49.5513 24.6433 47.435 24.469 45.2003C24.469 44.8459 24.3334 44.4913 24.2605 44.1578C24.2536 43.5531 24.2501 42.9484 24.25 42.3437ZM26.0119 41.8954H41.0974C41.0035 37.0894 37.9697 33.6803 33.9248 33.6491C29.4211 33.5865 26.1996 36.9225 26.0014 41.8746L26.0119 41.8954Z" fill="#201A3F"/>
</g>
<defs>
<clipPath id="clip0_163_417">
<rect width="48" height="48" fill="white" transform="translate(19 19)"/>
</clipPath>
</defs>
</svg>
