<svg width="85" height="85" viewBox="0 0 85 85" fill="none" xmlns="http://www.w3.org/2000/svg">
<rect width="85" height="85" rx="42.5" fill="#7B4AE2" fill-opacity="0.2"/>
<path d="M21.0666 39.71L34.5532 26.2L38.4966 30.1667C37.9366 32.15 38.8466 34.32 40.6666 35.37V48.2967C39.2666 49.09 38.3332 50.6067 38.3332 52.3334C38.3332 53.571 38.8249 54.758 39.7001 55.6332C40.5753 56.5084 41.7622 57 42.9999 57C44.2376 57 45.4246 56.5084 46.2997 55.6332C47.1749 54.758 47.6666 53.571 47.6666 52.3334C47.6666 50.6067 46.7332 49.09 45.3332 48.2967V36.9567L50.1632 41.8334C49.9999 42.1834 49.9999 42.58 49.9999 43C49.9999 44.2377 50.4916 45.4247 51.3668 46.2999C52.2419 47.175 53.4289 47.6667 54.6666 47.6667C55.9043 47.6667 57.0912 47.175 57.9664 46.2999C58.8416 45.4247 59.3332 44.2377 59.3332 43C59.3332 41.7624 58.8416 40.5754 57.9664 39.7002C57.0912 38.825 55.9043 38.3334 54.6666 38.3334C54.2466 38.3334 53.8499 38.3334 53.4999 38.4967L47.5033 32.5C47.793 31.4193 47.6806 30.2702 47.1871 29.266C46.6936 28.2619 45.8525 27.4709 44.8199 27.04C43.8166 26.6667 42.7666 26.5734 41.8332 26.83L37.8666 22.8867L39.7099 21.0667C41.5299 19.2234 44.4699 19.2234 46.2899 21.0667L64.9332 39.71C66.7766 41.53 66.7766 44.47 64.9332 46.29L46.2899 64.9334C44.4699 66.7767 41.5299 66.7767 39.7099 64.9334L21.0666 46.29C19.2232 44.47 19.2232 41.53 21.0666 39.71Z" fill="#8C76D5"/>
</svg>
