<svg width="56" height="56" viewBox="0 0 56 56" fill="none" xmlns="http://www.w3.org/2000/svg">
<path d="M27.9998 4.66675C24.9357 4.66675 21.9015 5.27028 19.0706 6.44289C16.2396 7.6155 13.6674 9.33422 11.5007 11.5009C7.12483 15.8768 4.6665 21.8117 4.6665 28.0001C4.6665 38.3134 11.3632 47.0634 20.6265 50.1667C21.7932 50.3534 22.1665 49.6301 22.1665 49.0001V45.0567C15.7032 46.4567 14.3265 41.9301 14.3265 41.9301C13.2532 39.2234 11.7365 38.5001 11.7365 38.5001C9.61317 37.0534 11.8998 37.1001 11.8998 37.1001C14.2332 37.2634 15.4698 39.5034 15.4698 39.5034C17.4998 43.0501 20.9298 42.0001 22.2598 41.4401C22.4698 39.9234 23.0765 38.8967 23.7298 38.3134C18.5498 37.7301 13.1132 35.7234 13.1132 26.8334C13.1132 24.2434 13.9998 22.1667 15.5165 20.5101C15.2832 19.9267 14.4665 17.5001 15.7498 14.3501C15.7498 14.3501 17.7098 13.7201 22.1665 16.7301C24.0098 16.2167 26.0165 15.9601 27.9998 15.9601C29.9832 15.9601 31.9898 16.2167 33.8332 16.7301C38.2898 13.7201 40.2498 14.3501 40.2498 14.3501C41.5332 17.5001 40.7165 19.9267 40.4832 20.5101C41.9998 22.1667 42.8865 24.2434 42.8865 26.8334C42.8865 35.7467 37.4265 37.7067 32.2232 38.2901C33.0632 39.0134 33.8332 40.4367 33.8332 42.6067V49.0001C33.8332 49.6301 34.2065 50.3767 35.3965 50.1667C44.6598 47.0401 51.3332 38.3134 51.3332 28.0001C51.3332 24.9359 50.7296 21.9017 49.557 19.0708C48.3844 16.2399 46.6657 13.6676 44.499 11.5009C42.3323 9.33422 39.7601 7.6155 36.9291 6.44289C34.0982 5.27028 31.064 4.66675 27.9998 4.66675Z" fill="#8C76D5"/>
</svg>
