<svg width="56" height="56" viewBox="0 0 56 56" fill="none" xmlns="http://www.w3.org/2000/svg">
<path d="M50.5471 23.3029L50.4818 23.1349L44.1375 6.58227C44.0092 6.2557 43.7806 5.97829 43.4845 5.79C43.1885 5.60172 42.8403 5.51229 42.4901 5.5346C42.1397 5.5502 41.8032 5.67649 41.529 5.89534C41.2548 6.11418 41.057 6.41431 40.9641 6.7526L36.6801 19.8799H19.3248L15.0338 6.75493C14.942 6.41651 14.7453 6.11588 14.472 5.89621C14.1986 5.67654 13.8627 5.54913 13.5125 5.53227C13.1623 5.51322 12.815 5.60422 12.5191 5.79252C12.2233 5.98082 11.9938 6.25697 11.8628 6.58227L5.51147 23.1583L5.44613 23.3216C4.53429 25.7089 4.42213 28.3277 5.12652 30.7843C5.83091 33.2408 7.31378 35.4022 9.35213 36.9436L9.37547 36.9599L9.43147 37.0043L19.1078 44.2469L23.8911 47.8706L26.8008 50.0733C27.142 50.3314 27.5582 50.4711 27.9861 50.4711C28.414 50.4711 28.8302 50.3314 29.1715 50.0733L32.0811 47.8706L36.8645 44.2469L46.5991 36.9599L46.6225 36.9413C48.6682 35.4019 50.1574 33.2387 50.8655 30.7784C51.5735 28.3181 51.4617 25.6942 50.5471 23.3029Z" fill="#8C76D5"/>
</svg>
