<svg width="85" height="85" viewBox="0 0 85 85" fill="none" xmlns="http://www.w3.org/2000/svg">
<rect width="85" height="85" rx="42.5" fill="#7B4AE2" fill-opacity="0.2"/>
<g clip-path="url(#clip0_3104_89)">
<path d="M50.8855 36.1649C49.7444 36.4547 48.8022 36.61 47.8391 36.9516C47.0749 37.1482 46.3002 37.3553 45.4103 37.583L45.3475 37.5934C44.9078 37.7176 44.8659 37.7279 44.4577 37.2621C43.9656 36.7135 43.6097 36.3615 42.9292 36.0303C40.8669 35.0365 38.8778 35.3264 37.0249 36.5168C34.8055 37.935 33.6644 40.0363 33.6958 42.6449C33.7272 45.2328 35.5174 47.3549 38.0089 47.7068C40.312 47.9967 42.1755 47.2307 43.6411 45.5848C43.8609 45.3156 44.0599 45.0361 44.2797 44.7256C44.3634 44.6221 44.4367 44.5082 44.5205 44.384H38.2288C37.5483 44.384 37.3808 43.9699 37.6111 43.4213C38.0299 42.4172 38.815 40.7402 39.2756 39.9018C39.3699 39.7154 39.6002 39.3014 39.998 39.3014H50.5819C51.053 37.9143 51.8172 36.5168 52.8431 35.1918C55.2195 32.0967 58.0042 30.4818 61.9719 29.809C65.3009 29.2293 68.4311 29.5502 71.2786 31.4549C73.8539 33.194 75.4452 35.5541 75.8744 38.6492C76.4292 43.0072 75.152 46.5475 72.0324 49.5805C69.97 51.744 67.3319 53.1 64.2959 53.7107C63.7097 53.8143 63.1339 53.866 62.5686 53.9178C62.265 53.9385 61.9719 53.9695 61.6788 54.0006C58.7161 53.9385 56.0047 53.1 53.7225 51.1643C52.1208 49.7875 51.0111 48.1002 50.4667 46.1438C50.0794 46.8994 49.6292 47.6344 49.0011 48.3279C46.7399 51.392 43.6725 53.2967 39.7991 53.8039C36.5956 54.2283 33.633 53.6176 31.0158 51.6818C28.608 49.8703 27.2366 47.4895 26.8806 44.5186C26.4514 40.999 27.4983 37.7486 29.6444 35.0676C31.9684 32.0656 35.0358 30.1609 38.7836 29.4881C41.8509 28.8463 44.7822 29.2914 47.4308 31.0719C49.1581 32.2002 50.3934 33.7426 51.21 35.6162C51.4089 35.9061 51.2728 36.0717 50.8855 36.1649ZM14.0564 36.7445C13.9256 36.7445 13.8931 36.6824 13.958 36.5789L14.6437 35.7094C14.7086 35.6162 14.8719 35.5541 15.0028 35.5541H26.6503C26.7759 35.5541 26.8074 35.6473 26.7445 35.7404L26.1897 36.5789C26.1269 36.6824 25.9594 36.7756 25.8652 36.7756L14.0564 36.7445ZM9.13045 39.7154C9.00001 39.7154 8.96735 39.643 9.03267 39.5498L9.71764 38.6803C9.78297 38.5871 9.94607 38.5147 10.0762 38.5147H24.9544C25.08 38.5147 25.1428 38.6182 25.1114 38.7113L24.8497 39.4877C24.8183 39.6119 24.6927 39.6844 24.5566 39.6844L9.13045 39.7154ZM16.9269 42.4897C16.862 42.5828 16.8945 42.676 17.0243 42.676L24.1378 42.707C24.232 42.707 24.3681 42.6139 24.3681 42.4897L24.4309 41.7133C24.4309 41.5787 24.3681 41.4856 24.232 41.4856H17.71C17.5791 41.4856 17.4493 41.5787 17.3834 41.6822L16.9269 42.4897ZM69.4256 40.6264C69.4047 40.3572 69.3942 40.1295 69.3524 39.9018C68.7661 36.7135 65.793 34.902 62.6942 35.6162C59.6583 36.2891 57.7006 38.1938 56.9888 41.2268C56.4025 43.7422 57.6378 46.2887 59.9828 47.3238C61.7834 48.1002 63.5736 48.007 65.3009 47.1272C67.8763 45.7193 69.2791 43.7422 69.4466 40.968C69.4361 40.8438 69.4361 40.7299 69.4256 40.6264Z" fill="#8C76D5"/>
</g>
<defs>
<clipPath id="clip0_3104_89">
<rect width="67" height="53" fill="white" transform="translate(9 16)"/>
</clipPath>
</defs>
</svg>
