<svg width="85" height="85" viewBox="0 0 85 85" fill="none" xmlns="http://www.w3.org/2000/svg">
<rect width="85" height="85" rx="42.5" fill="#7B4AE2" fill-opacity="0.2"/>
<path d="M29 22C27.1435 22 25.363 22.7375 24.0503 24.0503C22.7375 25.363 22 27.1435 22 29V57C22 58.8565 22.7375 60.637 24.0503 61.9497C25.363 63.2625 27.1435 64 29 64H57C58.8565 64 60.637 63.2625 61.9497 61.9497C63.2625 60.637 64 58.8565 64 57V29C64 27.1435 63.2625 25.363 61.9497 24.0503C60.637 22.7375 58.8565 22 57 22H29ZM46.1127 52.4617C47.7927 53.815 49.468 54.48 51.1433 54.4637C52.17 54.4637 52.9587 54.277 53.5047 53.899C53.7596 53.7335 53.967 53.5045 54.1066 53.2344C54.2461 52.9644 54.3129 52.6627 54.3003 52.359C54.3037 52.0278 54.2344 51.6998 54.0974 51.3983C53.9603 51.0967 53.7588 50.8289 53.507 50.6137C52.9587 50.1353 51.9227 49.657 50.399 49.1763C48.5697 48.6467 47.1557 47.963 46.164 47.123C45.1887 46.283 44.694 45.1117 44.6753 43.6067C44.6753 42.1857 45.2913 40.998 46.5233 40.039C47.7227 39.0823 49.2533 38.6017 51.12 38.6017C53.7193 38.6017 55.8077 39.234 57.3803 40.501L55.5837 43.2987C54.9368 42.7955 54.1946 42.4288 53.402 42.2207C52.6897 41.9824 51.9456 41.8526 51.1947 41.8357C50.308 41.8357 49.5963 41.999 49.0643 42.3233C48.5347 42.65 48.271 43.077 48.271 43.6067C48.271 44.19 48.5953 44.6847 49.244 45.0953C49.8973 45.4897 51.008 45.926 52.5807 46.4043C54.48 46.969 55.8333 47.7227 56.636 48.663C57.441 49.6033 57.8423 50.8027 57.8423 52.2563C57.8423 53.745 57.2707 55.0283 56.1227 56.1063C54.9933 57.168 53.3507 57.7233 51.1947 57.7747C48.3713 57.7747 46.01 56.9277 44.1107 55.2337L46.1127 52.4617ZM33.2093 53.9503C33.7577 54.2933 34.4157 54.4637 35.1857 54.4637C35.9907 54.4637 36.6557 54.2327 37.1877 53.7707C37.7173 53.2923 37.9833 52.4617 37.9833 51.281V38.9097H41.4483V51.9483C41.397 53.9667 40.816 55.4227 39.703 56.3117C39.0957 56.8281 38.3877 57.2126 37.624 57.441C36.9166 57.6565 36.1818 57.7689 35.4423 57.7747C34.159 57.7747 33.0203 57.553 32.0287 57.1073C30.967 56.629 30.078 55.782 29.3593 54.5663L31.772 52.59C32.2153 53.1897 32.696 53.6423 33.2093 53.9503Z" fill="#8C76D5"/>
</svg>
