<svg width="85" height="85" viewBox="0 0 85 85" fill="none" xmlns="http://www.w3.org/2000/svg">
<rect width="85" height="85" rx="42.5" fill="#7B4AE2" fill-opacity="0.2"/>
<path d="M47.6188 46.4375H47.0151C46.5426 46.7263 46.3326 47.2775 46.5426 47.75L48.8001 53.2888C50.9788 51.8975 52.6326 49.8238 53.4988 47.3825L47.6451 46.4375H47.6188ZM38.5626 47.1988C38.4951 46.9845 38.363 46.7964 38.1844 46.6601C38.0059 46.5238 37.7895 46.4461 37.5651 46.4375H37.3551L31.5276 47.4088C32.3938 49.8238 34.0476 51.8713 36.2263 53.2625L38.4576 47.8288V47.75C38.5626 47.6188 38.5626 47.3825 38.5626 47.1988ZM43.3663 49.325C43.239 49.0974 43.0275 48.9287 42.7772 48.8551C42.527 48.7815 42.2579 48.8088 42.0276 48.9313C41.8438 49.0625 41.7126 49.1413 41.6338 49.325H41.6076L38.7463 54.4963C40.7938 55.1788 42.9988 55.31 45.1251 54.8113C45.4926 54.7325 45.8863 54.6275 46.2538 54.4963L43.3926 49.325H43.3663ZM52.4226 37.3288L48.0126 41.1875L48.0388 41.2663C47.9388 41.3495 47.8565 41.4521 47.7969 41.5677C47.7372 41.6834 47.7015 41.8099 47.6917 41.9397C47.6819 42.0694 47.6983 42.1999 47.7399 42.3232C47.7815 42.4465 47.8474 42.5602 47.9338 42.6575C48.0651 42.815 48.2226 42.92 48.4063 42.9725L48.4326 42.9988L54.1288 44.6263C54.3126 42.08 53.7613 39.5075 52.4226 37.3288ZM44.2588 37.7488C44.2851 38.3 44.7313 38.72 45.2826 38.6938C45.4926 38.6938 45.6763 38.6413 45.8338 38.5625H45.8601L50.6638 35.1238C48.8333 33.3277 46.4626 32.1838 43.9176 31.8688L44.2588 37.7488ZM39.1663 38.5625C39.6126 38.8513 40.2163 38.7725 40.5313 38.3263C40.6626 38.1688 40.7151 37.985 40.7413 37.775H40.7676L41.0826 31.8688C40.6888 31.9213 40.2951 32 39.8751 32.0788C37.7751 32.5513 35.8326 33.6013 34.3101 35.1238L39.1401 38.5625H39.1663ZM36.5676 42.9988C37.0926 42.8675 37.4076 42.3163 37.2501 41.7913C37.2501 41.5813 37.1188 41.4238 36.9613 41.2925V41.2663L32.5513 37.25C31.1863 39.5075 30.6088 42.08 30.8976 44.6525L36.5676 43.025V42.9988ZM40.8726 44.7313L42.5001 45.5188L44.1276 44.7313L44.5213 42.9725L43.3926 41.5813H41.5813L40.4526 42.9725L40.8726 44.7313ZM69.4588 48.1963L64.8126 28.0625C64.5763 26.96 63.8413 26.0675 62.8701 25.595L44.0488 16.5913C43.0776 16.145 41.9226 16.145 40.9251 16.5913L22.1301 25.595C21.1588 26.0675 20.4238 26.96 20.1876 28.0625L15.5413 48.1963C15.4101 48.7213 15.4101 49.2463 15.5413 49.745C15.5676 49.9025 15.6201 50.06 15.6726 50.2175C15.7513 50.4538 15.8826 50.7163 16.0138 50.9263C16.0926 51.0313 16.1451 51.1363 16.2501 51.215L29.2438 67.4375C29.2963 67.4375 29.3751 67.5425 29.3751 67.595C29.6376 67.8313 29.8738 68.015 30.1101 68.1725C30.4251 68.3825 30.7926 68.54 31.1601 68.6188C31.4488 68.75 31.7638 68.75 32.0001 68.75H53.3151C53.4988 68.75 53.6826 68.6713 53.8401 68.6188C53.9713 68.5925 54.1026 68.54 54.2076 68.5138C54.3126 68.4613 54.3913 68.435 54.4963 68.3825C54.6276 68.33 54.7588 68.2513 54.8901 68.1725C55.2051 67.9625 55.4938 67.7 55.7563 67.4375L56.1501 66.9125L68.7501 51.215C69.0126 50.9 69.1963 50.5588 69.3276 50.2175C69.3801 50.06 69.4326 49.9025 69.4588 49.745C69.5901 49.2463 69.5901 48.695 69.4588 48.1963ZM49.9551 56.045C50.0076 56.2025 50.0601 56.36 50.1388 56.4913C50.0338 56.7013 49.9813 56.9375 50.0601 57.1738C50.3751 57.8038 50.6638 58.3813 51.0576 58.9588C51.2676 59.2475 51.4776 59.5625 51.6876 59.8513C51.6876 59.93 51.7663 60.0613 51.7926 60.1663C52.1076 60.6913 51.9501 61.3738 51.3988 61.715C50.8476 62.0563 50.1651 61.8463 49.8501 61.3213C49.8238 61.2425 49.7976 61.19 49.7713 61.1113C49.7188 61.0325 49.6663 60.875 49.6138 60.875C49.4826 60.4813 49.3776 60.14 49.2988 59.7988C49.0626 59.1425 48.8526 58.5125 48.5113 57.9088C48.3748 57.7271 48.1803 57.5974 47.9601 57.5413L47.7501 57.1213C44.3638 58.3813 40.6626 58.3813 37.3288 57.095L37.0663 57.5675C36.8826 57.5938 36.6988 57.6725 36.5676 57.8038C36.2001 58.4338 35.9376 59.09 35.7013 59.825C35.6226 60.1663 35.5176 60.5075 35.3863 60.875C35.3338 60.875 35.2813 61.0588 35.2288 61.1375C35.1279 61.4195 34.919 61.6498 34.6483 61.7778C34.3775 61.9058 34.067 61.921 33.7851 61.82C33.5031 61.7191 33.2728 61.5103 33.1448 61.2395C33.0168 60.9687 33.0016 60.6582 33.1026 60.3763C33.1288 60.2975 33.1813 60.245 33.2076 60.1663C33.3126 60.0875 33.3126 59.9563 33.3126 59.8775C33.5488 59.5625 33.7326 59.2738 33.9426 58.9588C34.3626 58.4075 34.7038 57.7775 34.9663 57.1475C34.9921 56.9256 34.9652 56.7008 34.8876 56.4913L35.0713 56.0188C31.9953 54.1938 29.6901 51.31 28.5876 47.9075L28.0626 47.9863C27.8913 47.8458 27.6799 47.7631 27.4588 47.75C26.7501 47.8813 26.1201 48.0913 25.4376 48.3275C25.1488 48.485 24.8076 48.6163 24.4663 48.7213C24.3876 48.7475 24.2826 48.7738 24.1251 48.8C23.843 48.885 23.5391 48.8589 23.2756 48.7271C23.0121 48.5954 22.8089 48.3679 22.7076 48.0913C22.5238 47.4875 22.8126 46.8575 23.4426 46.6475C23.4951 46.6475 23.5738 46.6213 23.6526 46.6213V46.595H23.6788L23.9676 46.5425C24.3351 46.4375 24.7026 46.4375 25.0438 46.4375C25.7263 46.4375 26.4088 46.28 27.0651 46.1225C27.2751 45.9913 27.4326 45.8338 27.5638 45.6238L28.0626 45.4925C27.5113 41.9225 28.3251 38.3263 30.3201 35.3338L29.9526 35.0188C29.9526 34.7825 29.8738 34.5463 29.7426 34.3625C29.2176 33.9163 28.6663 33.5225 28.0626 33.1813C27.7476 33.0238 27.4326 32.84 27.1176 32.63C27.0651 32.5775 26.9601 32.4988 26.9076 32.4463L26.8813 32.42C26.3563 32 26.2251 31.3175 26.5926 30.7663C26.8288 30.5038 27.1438 30.3725 27.5113 30.3725C27.8001 30.3988 28.0626 30.5038 28.2988 30.6875L28.5351 30.8713C28.7976 31.1075 29.0338 31.3963 29.2701 31.6588C29.7426 32.1575 30.2413 32.63 30.7926 33.0238C31.0026 33.1288 31.2388 33.155 31.4751 33.1025L31.8688 33.3913C33.8376 31.2913 36.4101 29.8213 39.2188 29.1913C39.8751 29.0338 40.5838 28.9288 41.2663 28.8763L41.2926 28.4038C41.4738 28.2448 41.6021 28.0341 41.6601 27.8C41.6863 27.1175 41.6338 26.435 41.5288 25.7788C41.4501 25.4375 41.3976 25.07 41.3713 24.7025V24.3875C41.3188 23.7575 41.7651 23.2063 42.3951 23.1275C43.0251 23.0488 43.5501 23.5213 43.6288 24.125V24.7025C43.6026 25.07 43.5501 25.4375 43.4713 25.7788C43.3663 26.435 43.3138 27.1175 43.3401 27.8C43.3926 28.0625 43.5238 28.2463 43.7076 28.3775L43.7338 28.8763C47.3038 29.1913 50.6113 30.7925 53.0788 33.3913L53.4988 33.0763C53.7351 33.1288 53.9713 33.1025 54.1813 32.9975C54.7326 32.6038 55.2576 32.1313 55.7038 31.6325C55.9401 31.37 56.1763 31.1075 56.4388 30.845C56.5176 30.7925 56.6226 30.6875 56.7013 30.6875C57.1476 30.215 57.8563 30.215 58.2501 30.6875C58.7488 31.1075 58.7226 31.8163 58.2501 32.2625C58.2501 32.315 58.1713 32.3675 58.0926 32.42C57.7342 32.7046 57.3471 32.951 56.9376 33.155C56.3338 33.4963 55.7563 33.89 55.2576 34.3363C55.1001 34.52 55.0213 34.73 55.0476 34.9663L54.6276 35.3338C56.6429 38.3013 57.4675 41.9185 56.9376 45.4663L57.4363 45.5975C57.5413 45.8075 57.7251 45.965 57.9351 46.07C58.5913 46.2538 59.2738 46.3588 59.9563 46.4375H61.0326C61.1113 46.5163 61.2426 46.5425 61.3476 46.5688C61.9776 46.6475 62.3976 47.225 62.3188 47.855C62.1876 48.4588 61.6888 48.905 61.0588 48.8263C60.9801 48.8 60.8751 48.8 60.8751 48.7738V48.7475C60.7176 48.7475 60.6126 48.7213 60.5076 48.695C60.1663 48.59 59.8513 48.4588 59.5626 48.3013C58.8801 48.0388 58.2501 47.855 57.5413 47.75C57.3051 47.75 57.0951 47.75 56.9376 47.96C56.7538 47.9338 56.5963 47.9075 56.4388 47.8813C55.3626 51.32 53.0001 54.2075 49.9551 56.045Z" fill="#8C76D5"/>
</svg>
