<svg width="85" height="85" viewBox="0 0 85 85" fill="none" xmlns="http://www.w3.org/2000/svg">
<rect width="85" height="85" rx="42.5" fill="#7B4AE2" fill-opacity="0.2"/>
<path d="M47.5 40.3L57.625 45.925M47.5 40.3L28.375 50.875M47.5 40.3V29.05M18.25 23.875L28.375 18.25L38.5 23.875M18.25 23.875V56.5L38.5 67.75M18.25 23.875L28.375 29.5M38.5 67.75L57.625 57.175V34.675M38.5 67.75V56.5M57.625 34.675L67.75 29.05M57.625 34.675L47.5 29.05M67.75 29.05V40.3L38.5 56.5M67.75 29.05L57.625 23.425L47.5 29.05M38.5 56.5L28.375 50.875M28.375 50.875V29.5M28.375 29.5L38.5 23.875M38.5 23.875V45.25" stroke="#8C76D5" stroke-width="2" stroke-linecap="round" stroke-linejoin="round"/>
</svg>
