<svg width="85" height="85" viewBox="0 0 85 85" fill="none" xmlns="http://www.w3.org/2000/svg">
<rect width="85" height="85" rx="42.5" fill="#7B4AE2" fill-opacity="0.2"/>
<path d="M53.2783 26.8357C53.01 26.8357 52.828 26.8683 52.639 26.9127V26.943H52.6717C52.7977 27.1857 53.0123 27.363 53.171 27.58C53.297 27.8297 53.4043 28.0793 53.5303 28.3267L53.563 28.2917C53.7823 28.1377 53.8897 27.8903 53.8897 27.5147C53.7963 27.405 53.7823 27.2953 53.703 27.188C53.6097 27.0317 53.409 26.9547 53.283 26.831L53.2783 26.8357ZM28.4633 57.6217H26.3003C26.2395 54.1842 26.0293 50.7509 25.6703 47.3317H25.6517L22.3617 57.6217H20.7167L17.45 47.3317H17.4267C17.1712 50.7563 17.0194 54.1879 16.9717 57.6217H15C15.1283 53.0343 15.448 48.7317 15.9567 44.7183H18.64L21.755 54.201H21.7737L24.9167 44.7183H27.4717C28.0363 49.42 28.3677 53.725 28.4703 57.6217H28.4633ZM37.8363 48.1017C36.9543 52.8733 35.7923 56.3454 34.355 58.5084C33.2303 60.179 31.9983 61.012 30.6613 61.012C30.3043 61.012 29.868 60.9047 29.3407 60.69V59.5373C29.5973 59.577 29.9007 59.598 30.2413 59.598C30.8667 59.598 31.3683 59.423 31.751 59.08C32.2107 58.66 32.4393 58.1887 32.4393 57.6684C32.4393 57.3067 32.2597 56.5717 31.9027 55.4657L29.5367 48.1017H31.66L33.3563 53.6083C33.739 54.859 33.9 55.7317 33.8347 56.2287C34.768 53.746 35.4167 51.0323 35.783 48.1017H37.8363ZM66.5947 57.6217H60.458V44.7183H62.523V56.035H66.5947V57.6217ZM58.848 57.9367L56.4773 56.77C56.6873 56.5927 56.8903 56.4013 57.0723 56.1867C58.0827 55.006 58.5843 53.2513 58.5843 50.9297C58.5843 46.6597 56.909 44.5223 53.556 44.5223C51.9133 44.5223 50.63 45.0637 49.706 46.1487C48.7027 47.334 48.1987 49.0793 48.1987 51.387C48.1987 53.655 48.642 55.321 49.538 56.3803C50.3547 57.337 51.5843 57.8153 53.2317 57.8153C53.8477 57.8153 54.4123 57.7383 54.9233 57.5867L58.015 59.388L58.855 57.9367H58.848ZM51.1667 55.0387C50.6417 54.1987 50.3803 52.8453 50.3803 50.988C50.3803 47.7377 51.3697 46.1113 53.3437 46.1113C54.3773 46.1113 55.1403 46.501 55.6233 47.278C56.146 48.1227 56.4073 49.462 56.4073 51.2983C56.4073 54.5743 55.418 56.217 53.444 56.217C52.4057 56.217 51.6473 55.8274 51.162 55.0504L51.1667 55.0387ZM47.298 54.047C47.298 55.1437 46.8967 56.0443 46.094 56.7444C45.2913 57.4444 44.2203 57.7943 42.8647 57.7943C41.5977 57.7943 40.382 57.393 39.1943 56.5927L39.7473 55.482C40.7693 55.9953 41.691 56.2474 42.524 56.2474C43.2987 56.2474 43.9077 56.077 44.351 55.734C44.5726 55.567 44.7515 55.3499 44.8732 55.1005C44.9948 54.8511 45.0558 54.5765 45.051 54.299C45.051 53.529 44.5143 52.8757 43.539 52.3274C42.6337 51.8304 40.8253 50.7943 40.8253 50.7943C39.8407 50.078 39.3507 49.3103 39.3507 48.048C39.3507 46.998 39.717 46.158 40.4473 45.5163C41.1823 44.8677 42.1273 44.548 43.294 44.548C44.4887 44.548 45.5807 44.8653 46.5607 45.5047L46.0637 46.6153C45.2806 46.2714 44.4362 46.0888 43.581 46.0787C42.9207 46.0787 42.4097 46.2373 42.055 46.5593C41.875 46.7084 41.7299 46.8952 41.6299 47.1064C41.53 47.3177 41.4775 47.5483 41.4763 47.782C41.4763 48.5473 42.0223 49.2053 43.0303 49.7653C43.9473 50.267 45.8 51.3287 45.8 51.3287C46.8103 52.0403 47.312 52.7987 47.312 54.054L47.298 54.047ZM69.1893 40.3923C67.941 40.3597 66.9727 40.4857 66.163 40.831C65.9297 40.9243 65.5563 40.9244 65.5237 41.2207C65.652 41.3444 65.6707 41.5473 65.7803 41.72C65.967 42.0327 66.289 42.4503 66.5877 42.6697C66.9143 42.9263 67.241 43.1737 67.584 43.393C68.1907 43.7663 68.879 43.988 69.474 44.3637C69.8123 44.583 70.1577 44.8607 70.5007 45.094C70.671 45.2107 70.7807 45.4207 71 45.4953V45.4487C70.8927 45.3087 70.86 45.1057 70.755 44.9493C70.5987 44.793 70.4423 44.653 70.2883 44.499C69.8302 43.8953 69.2835 43.3643 68.6667 42.924C68.1673 42.5833 67.0753 42.1073 66.87 41.5357L66.8397 41.503C67.1803 41.4727 67.5863 41.349 67.913 41.2557C68.4427 41.1157 68.928 41.146 69.4763 41.0083C69.7237 40.9453 69.9733 40.8683 70.223 40.789V40.649C69.943 40.369 69.733 39.9887 69.4437 39.7273C68.6361 39.0214 67.7748 38.3794 66.8677 37.807C66.3777 37.4943 65.757 37.2937 65.2413 37.0277C65.0547 36.9344 64.742 36.8877 64.6347 36.7313C64.3547 36.3907 64.1913 35.938 63.993 35.532C63.5348 34.6432 63.1091 33.7381 62.7167 32.8183C62.4367 32.207 62.2663 31.598 61.9233 31.038C60.3133 28.385 58.5703 26.7773 55.8893 25.2047C55.313 24.878 54.6223 24.738 53.892 24.5653C53.5023 24.5467 53.1127 24.5187 52.7253 24.5023C52.4687 24.3927 52.2213 24.0963 52.002 23.954C51.1153 23.394 48.8193 22.1807 48.166 23.786C47.746 24.7987 48.789 25.7973 49.1507 26.3107C49.419 26.6677 49.7573 27.076 49.944 27.4773C50.0537 27.748 50.084 28.0257 50.1937 28.308C50.441 28.994 50.6767 29.7593 51.0033 30.401C51.1737 30.7277 51.3603 31.0707 51.5797 31.3647C51.7057 31.535 51.9203 31.6143 51.9693 31.8943C51.75 32.2117 51.736 32.6737 51.61 33.061C51.05 34.8273 51.2693 37.0113 52.0627 38.311C52.3123 38.6983 52.9073 39.557 53.703 39.228C54.403 38.948 54.249 38.0613 54.4497 37.2797C54.4963 37.093 54.466 36.9693 54.5617 36.8433V36.8783C54.781 37.317 55.0003 37.7347 55.201 38.1733C55.6817 38.9387 56.5217 39.732 57.224 40.2617C57.5973 40.5417 57.8937 41.027 58.3603 41.1997V41.153H58.3253C58.225 41.0177 58.092 40.9523 57.966 40.8427C57.6701 40.5531 57.3971 40.241 57.1493 39.9093C56.4919 39.0111 55.909 38.0606 55.4063 37.0673C55.1497 36.5773 54.935 36.05 54.7297 35.567C54.6363 35.3803 54.6363 35.1003 54.48 35.007C54.2467 35.3477 53.9037 35.644 53.7333 36.064C53.437 36.736 53.4067 37.562 53.2947 38.4207C53.2317 38.437 53.262 38.4207 53.2317 38.4533C52.7323 38.332 52.562 37.814 52.3753 37.38C51.9087 36.2717 51.8317 34.4913 52.2353 33.215C52.345 32.8883 52.8117 31.857 52.625 31.5443C52.527 31.248 52.219 31.0777 52.0487 30.8373C51.8296 30.5245 51.642 30.1908 51.4887 29.841C51.1153 28.9683 50.9287 28.0023 50.5227 27.1297C50.336 26.726 50.0093 26.3037 49.7433 25.9327C49.447 25.5127 49.1203 25.2163 48.8847 24.7193C48.8077 24.549 48.698 24.2667 48.8217 24.08C48.8543 23.954 48.9197 23.905 49.041 23.87C49.2463 23.702 49.8227 23.9213 50.0257 24.0147C50.602 24.248 51.0873 24.4673 51.5703 24.794C51.7897 24.948 52.0253 25.2443 52.3053 25.3213H52.632C53.1313 25.431 53.6937 25.354 54.1603 25.4917C54.9887 25.7577 55.7353 26.145 56.405 26.565C58.4684 27.8831 60.1468 29.7233 61.27 31.899C61.4567 32.2583 61.5383 32.5873 61.7087 32.9607C62.0353 33.7307 62.439 34.5077 62.7703 35.252C63.097 35.987 63.412 36.736 63.881 37.345C64.1143 37.6717 65.0523 37.842 65.4723 38.0124C65.7827 38.1523 66.2657 38.2807 66.5457 38.451C67.0823 38.7777 67.605 39.151 68.109 39.5103C68.3657 39.6877 69.1427 40.0773 69.1893 40.3923Z" fill="#8C76D5"/>
</svg>
