<svg width="85" height="85" viewBox="0 0 85 85" fill="none" xmlns="http://www.w3.org/2000/svg">
<rect width="85" height="85" rx="42.5" fill="#7B4AE2" fill-opacity="0.2"/>
<g clip-path="url(#clip0_3104_63)">
<path d="M56.753 19.745C38.8931 9.24357 16.1988 22.0697 16.0013 42.7766C15.8085 62.9967 37.2072 76.0568 55.0268 67.1571L35.5708 38.5319V56.2504C35.5708 58.2136 31.8141 58.2136 31.8141 56.2504V32.4975C31.8141 30.9391 34.709 30.8112 35.5294 32.1658L57.7055 65.6306C74.3643 54.9006 74.1394 29.9679 56.753 19.745ZM54.2475 53.2776L50.4788 47.5215V31.7632C50.4788 30.2938 54.2474 30.2938 54.2474 31.7632L54.2475 53.2776Z" fill="#8C76D5"/>
</g>
<defs>
<clipPath id="clip0_3104_63">
<rect width="54" height="54" fill="white" transform="translate(16 16)"/>
</clipPath>
</defs>
</svg>
