<svg width="85" height="85" viewBox="0 0 85 85" fill="none" xmlns="http://www.w3.org/2000/svg">
<rect width="85" height="85" rx="42.5" fill="#7B4AE2" fill-opacity="0.2"/>
<g clip-path="url(#clip0_163_455)">
<path d="M41.551 15.357C41.9525 15.1227 42.4091 14.9993 42.874 14.9993C43.3389 14.9993 43.7955 15.1227 44.197 15.357L65.946 28.0445C66.343 28.2754 66.6724 28.6063 66.9015 29.0043C67.1306 29.4022 67.2513 29.8533 67.2515 30.3125V55.6875C67.2513 56.1467 67.1306 56.5979 66.9015 56.9958C66.6724 57.3938 66.343 57.7247 65.946 57.9555L44.197 70.643C43.7955 70.8774 43.3389 71.0008 42.874 71.0008C42.4091 71.0008 41.9525 70.8774 41.551 70.643L36.1155 67.472C35.514 67.1212 35.0765 66.5457 34.8993 65.8723C34.7221 65.1988 34.8196 64.4826 35.1705 63.881C35.5214 63.2795 36.0968 62.842 36.7703 62.6648C37.4437 62.4876 38.16 62.5852 38.7615 62.936L42.874 65.337L62.0015 54.179V31.821L42.874 20.663L23.75 31.821V54.179L27.6595 56.461C28.8635 56.846 30.3545 56.9405 31.401 56.4785C31.9488 56.2386 32.3983 55.8188 32.675 55.2885C33.039 54.6305 33.375 53.535 33.375 51.75V33.375C33.375 32.6789 33.6516 32.0112 34.1438 31.5189C34.6361 31.0266 35.3038 30.75 36 30.75C36.6962 30.75 37.3639 31.0266 37.8562 31.5189C38.3484 32.0112 38.625 32.6789 38.625 33.375V51.75C38.625 54.165 38.1735 56.202 37.26 57.84C36.4283 59.3683 35.1139 60.5781 33.522 61.2805C30.701 62.5265 27.5825 62.0155 25.675 61.3295C25.5244 61.2753 25.3792 61.2073 25.241 61.1265L19.802 57.9555C19.4057 57.7243 19.0769 57.3932 18.8485 56.9952C18.62 56.5973 18.4999 56.1464 18.5 55.6875V30.3125C18.4999 29.8537 18.62 29.4028 18.8485 29.0049C19.0769 28.6069 19.4057 28.2758 19.802 28.0445L41.551 15.357ZM43.861 33.4905C45.2505 31.8385 47.4205 30.75 50.364 30.75C53.094 30.75 55.1765 31.688 56.587 33.1755C56.8323 33.4244 57.0254 33.7196 57.155 34.0441C57.2847 34.3685 57.3483 34.7155 57.3421 35.0649C57.3359 35.4142 57.26 35.7588 57.1189 36.0784C56.9778 36.398 56.7743 36.6862 56.5204 36.9262C56.2665 37.1662 55.9672 37.353 55.6401 37.4758C55.313 37.5986 54.9647 37.6549 54.6156 37.6413C54.2665 37.6277 53.9236 37.5446 53.607 37.3968C53.2904 37.249 53.0065 37.0395 52.772 36.7805C52.4605 36.462 51.82 36 50.3605 36C48.8135 36 48.1765 36.518 47.879 36.868C47.5723 37.2418 47.3943 37.7046 47.3715 38.1875C47.3715 38.478 47.4975 39.052 47.879 39.507C48.1765 39.857 48.8135 40.375 50.364 40.375C50.6151 40.3744 50.865 40.4097 51.106 40.48C53.276 40.795 54.928 41.768 56.062 43.1155C57.364 44.666 57.798 46.5 57.798 47.8125C57.798 49.125 57.364 50.959 56.062 52.5095C54.6725 54.1615 52.5025 55.25 49.559 55.25C46.829 55.25 44.7465 54.312 43.3395 52.8245C42.8785 52.3157 42.6353 51.6464 42.662 50.9603C42.6886 50.2743 42.9831 49.6259 43.4821 49.1543C43.9812 48.6828 44.6451 48.4255 45.3316 48.4377C46.0181 48.4499 46.6725 48.7306 47.1545 49.2195C47.459 49.5415 48.103 50 49.559 50C51.106 50 51.7465 49.482 52.044 49.132C52.3495 48.7578 52.5262 48.2951 52.548 47.8125C52.5252 47.3296 52.3472 46.8668 52.0405 46.493C51.7465 46.143 51.106 45.625 49.559 45.625C49.3067 45.626 49.0557 45.5907 48.8135 45.52C46.6435 45.205 44.9915 44.232 43.861 42.8845C42.7586 41.5653 42.1443 39.9066 42.1215 38.1875C42.1215 36.875 42.5555 35.041 43.861 33.4905Z" fill="#8C76D5"/>
</g>
<defs>
<clipPath id="clip0_163_455">
<rect width="56" height="56" fill="white" transform="translate(15 15)"/>
</clipPath>
</defs>
</svg>
