<svg width="85" height="85" viewBox="0 0 85 85" fill="none" xmlns="http://www.w3.org/2000/svg">
<rect width="85" height="85" rx="42.5" fill="#7B4AE2" fill-opacity="0.2"/>
<path d="M14.5 52.5V33.5H25.5833C26.85 33.5 27.9583 33.975 28.9083 34.925C29.8583 35.875 30.3333 36.9833 30.3333 38.25V41.4167C30.3333 42.6833 29.8583 43.7917 28.9083 44.7417C27.9583 45.6917 26.85 46.1667 25.5833 46.1667H19.25V52.5H14.5ZM35.0833 52.5V33.5H39.8333V39.8333H46.1667V33.5H50.9167V52.5H46.1667V44.5833H39.8333V52.5H35.0833ZM57.25 52.5V33.5H68.3333C69.6 33.5 70.7083 33.975 71.6583 34.925C72.6083 35.875 73.0833 36.9833 73.0833 38.25V41.4167C73.0833 42.6833 72.6083 43.7917 71.6583 44.7417C70.7083 45.6917 69.6 46.1667 68.3333 46.1667H62V52.5H57.25ZM19.25 41.4167H25.5833V38.25H19.25V41.4167ZM62 41.4167H68.3333V38.25H62V41.4167Z" fill="#8C76D5"/>
</svg>
