<svg width="85" height="85" viewBox="0 0 85 85" fill="none" xmlns="http://www.w3.org/2000/svg">
<rect width="85" height="85" rx="42.5" fill="#7B4AE2" fill-opacity="0.2"/>
<path d="M53.8111 18.25C51.8304 18.2645 49.8606 18.5445 47.9543 19.0825L47.8193 19.123C46.6185 18.9174 45.4037 18.8038 44.1856 18.7832C41.6813 18.7405 39.528 19.33 37.7955 20.3133C36.0856 19.7373 32.5395 18.745 28.8023 18.943C26.199 19.0802 23.3595 19.8475 21.2558 22.003C19.1565 24.1585 18.0473 27.493 18.2813 32.0312C18.3443 33.2845 18.711 35.3253 19.323 37.9713C19.9305 40.615 20.79 43.7087 21.8588 46.5325C22.9275 49.3585 24.0998 51.8965 25.9313 53.62C26.8448 54.484 28.1025 55.2108 29.5853 55.15C30.627 55.1095 31.5698 54.6662 32.382 54.0115C32.778 54.5177 33.201 54.7383 33.5858 54.943C34.0695 55.1995 34.542 55.375 35.0303 55.492C36.3825 55.8381 37.7906 55.9077 39.1703 55.6968C39.771 55.6 40.4033 55.411 41.0333 55.141C41.0558 55.8205 41.0828 56.4865 41.112 57.1615C41.1975 59.299 41.2538 61.2722 41.9153 63.0025C42.021 63.286 42.3113 64.7417 43.4611 66.0265C44.6085 67.3135 46.8585 68.1145 49.419 67.5835C51.2258 67.2078 53.5253 66.5305 55.0508 64.4245C56.5583 62.341 57.24 59.353 57.375 54.5043C57.4088 54.2433 57.4493 54.0205 57.492 53.8112L57.852 53.8428H57.8925C59.8208 53.9282 61.9133 53.6628 63.6615 52.8753C65.2095 52.1777 66.3795 51.4757 67.2323 50.227C67.446 49.9187 67.68 49.5452 67.743 48.8995C67.806 48.2582 67.428 47.2502 66.7958 46.7867C65.529 45.8552 64.7348 46.2085 63.882 46.3818C63.0428 46.5618 62.1878 46.6607 61.326 46.681C63.7853 42.667 65.547 38.401 66.5528 34.6255C67.1468 32.398 67.482 30.3438 67.509 28.5483C67.536 26.7528 67.3853 25.162 66.276 23.785C62.8088 19.4875 57.9331 18.2995 54.1621 18.259C54.0451 18.2567 53.9281 18.2545 53.8111 18.2568V18.25ZM53.712 19.5707C57.2783 19.537 61.8368 20.509 65.1083 24.5657C65.844 25.477 66.0623 26.809 66.0375 28.4515C66.0105 30.0918 65.6978 32.0537 65.1263 34.2047C64.017 38.3717 61.92 43.2272 58.9658 47.5877C59.0709 47.66 59.1842 47.7197 59.3033 47.7655C59.9198 48.013 61.3238 48.2245 64.1295 47.6665C64.8338 47.5203 65.3513 47.4235 65.8868 47.8195C66.0152 47.9256 66.1172 48.0601 66.1848 48.2124C66.2523 48.3647 66.2836 48.5306 66.276 48.697C66.2468 48.9484 66.1513 49.1876 65.9993 49.39C65.4593 50.1798 64.3883 50.929 63.0158 51.5455C61.803 52.0945 60.0615 52.3802 58.518 52.3983C57.744 52.405 57.0308 52.3465 56.4255 52.1642L56.385 52.1507C56.151 54.3355 55.6133 58.6533 55.2645 60.622C54.9833 62.2105 54.4928 63.4727 53.5546 64.4177C52.6185 65.3627 51.2956 65.932 49.5135 66.3032C47.3063 66.7622 45.6975 66.2673 44.6603 65.419C43.6253 64.5753 43.1505 63.4525 42.8648 62.764C42.669 62.2915 42.5678 61.6773 42.4688 60.856C42.3601 59.8727 42.2873 58.8858 42.2505 57.8973C42.1857 56.1641 42.1647 54.4295 42.1875 52.6953C41.265 53.512 40.1175 54.0565 38.8868 54.2612C37.4243 54.502 36.1148 54.2658 35.334 54.0768C34.9512 53.9826 34.5811 53.8429 34.2315 53.6605C33.867 53.4738 33.5228 53.2622 33.2933 52.8438C33.1581 52.6049 33.1149 52.3248 33.1718 52.0562C33.2453 51.7834 33.4086 51.5432 33.6353 51.3745C34.0583 51.0415 34.614 50.857 35.4533 50.686C36.9833 50.3823 37.5165 50.173 37.8405 49.9232C38.1173 49.7095 38.43 49.2775 38.9835 48.6408C38.9809 48.613 38.9786 48.5853 38.9768 48.5575C37.99 48.5314 37.0223 48.2789 36.1485 47.8195C35.8313 48.1435 34.2023 49.8153 32.2155 52.1328C31.3808 53.1025 30.4583 53.6582 29.484 53.6987C28.5098 53.7392 27.63 53.2623 26.883 52.5602C25.3868 51.1518 24.1943 48.7285 23.1548 45.9903C22.1198 43.2498 21.2738 40.1988 20.6753 37.6C20.0723 35.0013 19.7168 32.9065 19.6673 31.8962C19.4423 27.601 20.4773 24.7075 22.2548 22.8828C24.0323 21.058 26.4668 20.3672 28.8428 20.2345C33.1043 19.996 37.1521 21.4383 37.9711 21.7488C39.5483 20.7093 41.58 20.0612 44.1203 20.1017C45.3243 20.1182 46.5228 20.2691 47.6933 20.5517L47.736 20.5338C48.2513 20.3583 48.7756 20.2098 49.3066 20.0928C50.752 19.7658 52.2279 19.5924 53.7098 19.5752L53.712 19.5707ZM54.0338 20.9523H53.7256C52.5082 20.9687 51.2952 21.1013 50.103 21.3483C52.4695 22.3788 54.5487 23.9714 56.16 25.9878C57.1358 27.1943 57.9455 28.5261 58.5676 29.9478C58.8015 30.4922 58.959 30.9535 59.0468 31.309C59.0918 31.489 59.1233 31.6397 59.1323 31.7972C59.141 31.8969 59.1326 31.9974 59.1075 32.0942L59.094 32.1213C59.1593 33.928 58.698 35.152 58.6418 36.8755C58.599 38.1265 58.9275 39.5957 59.0085 41.1955C59.085 42.703 58.8983 44.3568 57.8903 45.9812C57.9758 46.0802 58.0523 46.1792 58.1333 46.2782C60.7995 42.2057 62.7233 37.6968 63.747 33.856C64.2938 31.786 64.5863 29.9117 64.611 28.4267C64.6335 26.9417 64.3478 25.864 63.9833 25.4162C61.1303 21.877 57.2715 20.977 54.0338 20.9523ZM43.8525 21.481C41.3393 21.4855 39.5348 22.2235 38.169 23.326C36.7583 24.4668 35.8133 26.026 35.1923 27.6257C34.5912 29.2244 34.2236 30.9014 34.101 32.605L34.1303 32.5893C34.8885 32.1753 35.8853 31.7635 36.9518 31.525C38.0205 31.2865 39.1703 31.2122 40.212 31.6038C41.2538 31.9975 42.1156 32.9177 42.4283 34.3172C43.9246 41.0357 41.9625 43.5333 41.238 45.4165C40.9646 46.0994 40.7303 46.7973 40.536 47.5068C40.626 47.4843 40.716 47.4618 40.8083 47.4528C41.2035 47.4314 41.5979 47.5087 41.9558 47.6778C42.6848 47.9703 43.1843 48.5823 43.4543 49.2843C43.524 49.4688 43.5758 49.6668 43.605 49.8693C43.6365 49.9548 43.65 50.0425 43.6478 50.1325C43.567 52.7015 43.5761 55.2726 43.6748 57.841C43.7243 58.9525 43.7963 59.929 43.8885 60.7008C43.9785 61.4703 44.109 62.0552 44.1923 62.2533C44.4623 62.9147 44.8605 63.7788 45.5806 64.366C46.3006 64.951 47.3288 65.3425 49.212 64.951C50.8456 64.6113 51.8535 64.141 52.5285 63.4593C53.1991 62.782 53.6018 61.8392 53.8583 60.3925C54.243 58.2257 55.017 51.946 55.1093 50.7625C55.0688 49.8737 55.2038 49.1875 55.4963 48.6655C55.8 48.13 56.268 47.8015 56.6708 47.6238C56.8733 47.5338 57.0623 47.4753 57.2175 47.4325C57.0528 47.2031 56.8802 46.9795 56.7001 46.762C56.1199 46.0801 55.6431 45.3167 55.2848 44.4963C55.1137 44.158 54.9313 43.8256 54.738 43.4995C54.4568 43.0045 54.099 42.3857 53.7256 41.6905C52.9763 40.2978 52.1618 38.6103 51.7388 36.9655C51.3181 35.3253 51.2551 33.6265 52.335 32.4272C53.2935 31.363 54.972 30.922 57.4943 31.1695C57.42 30.9535 57.375 30.7735 57.249 30.4855C56.6768 29.1798 55.933 27.9563 55.0373 26.8472C52.8998 24.1968 49.4416 21.5688 44.0956 21.4833L43.8525 21.481ZM29.7315 21.5868C29.4615 21.5868 29.1915 21.5958 28.9215 21.6093C26.775 21.7285 24.7455 22.3338 23.2943 23.8278C21.8385 25.3195 20.8823 27.7675 21.0893 31.822C21.132 32.587 21.4763 34.738 22.0658 37.2895C22.6553 39.8455 23.4923 42.8493 24.4958 45.502C25.4993 48.157 26.7188 50.4678 27.8753 51.5612C28.458 52.108 28.9643 52.3285 29.4233 52.3105C29.8845 52.288 30.438 52.0315 31.1175 51.2417C32.3551 49.7937 33.6382 48.3852 34.965 47.0185C34.028 46.2319 33.3064 45.22 32.868 44.0778C32.4354 42.9457 32.3037 41.7209 32.4855 40.5228C32.7038 38.9972 32.733 37.5707 32.7083 36.4457C32.6813 35.3477 32.6003 34.6187 32.6003 34.162V34.099C32.5983 31.7211 33.0243 29.3622 33.858 27.1353C34.452 25.6007 35.3385 24.0415 36.6683 22.7793C35.3633 22.363 33.0458 21.7285 30.537 21.6093C30.2673 21.5952 29.9972 21.5877 29.727 21.5868H29.7315ZM56.088 32.4812C54.6458 32.4992 53.8358 32.8615 53.4106 33.334C52.8076 34.0045 52.7513 35.179 53.1248 36.628C53.496 38.077 54.2655 39.6992 54.99 41.0447C55.35 41.7197 55.701 42.3272 55.9845 42.8177C56.2703 43.3127 56.4795 43.6637 56.6055 43.9653C56.7225 44.2397 56.853 44.4827 56.9835 44.71C57.5415 43.5648 57.6428 42.442 57.5843 41.2698C57.51 39.8207 57.1635 38.338 57.2153 36.8372C57.2715 35.0822 57.6293 33.937 57.6608 32.5802C57.1391 32.5147 56.6138 32.4816 56.088 32.4812ZM38.583 32.7175C38.1423 32.7216 37.7033 32.7729 37.2736 32.8705C36.4193 33.0717 35.5948 33.3833 34.821 33.7975C34.5623 33.9325 34.3125 34.09 34.0785 34.2678L34.0335 34.3083C34.047 34.6098 34.1078 35.341 34.1348 36.4142C34.1573 37.591 34.1303 39.0917 33.8963 40.7118C33.3878 44.2397 36.0248 47.1602 39.1253 47.1647C39.3053 46.4403 39.6045 45.7068 39.9016 44.9328C40.7656 42.676 42.4643 41.0313 41.0333 34.6075C40.7993 33.5568 40.3358 33.1315 39.6968 32.8907C39.3386 32.768 38.9616 32.7093 38.583 32.7175ZM55.413 33.1383H55.521C55.6605 33.1427 55.791 33.1585 55.9035 33.1833C56.0071 33.2039 56.1061 33.2427 56.196 33.298C56.2368 33.3225 56.272 33.3551 56.2994 33.3938C56.3269 33.4325 56.3461 33.4765 56.3558 33.523V33.541C56.3594 33.6396 56.3327 33.737 56.2793 33.82C56.2161 33.9332 56.1374 34.037 56.0453 34.1283C55.8277 34.3602 55.5399 34.5143 55.2263 34.567C54.919 34.6034 54.609 34.5275 54.3533 34.3532C54.2498 34.286 54.1566 34.2042 54.0765 34.1102C54.0078 34.0378 53.961 33.9473 53.9416 33.8492C53.9368 33.8011 53.9424 33.7526 53.9579 33.7068C53.9734 33.661 53.9985 33.6191 54.0315 33.5837C54.1022 33.5068 54.187 33.4441 54.2813 33.3993C54.6368 33.233 55.023 33.1426 55.4153 33.1337L55.413 33.1383ZM38.79 33.4847C38.9025 33.4847 39.0218 33.496 39.1433 33.5118C39.4673 33.5568 39.7575 33.64 39.978 33.7638C40.086 33.82 40.1805 33.892 40.2615 33.982C40.3036 34.03 40.3357 34.0858 40.356 34.1462C40.3762 34.2063 40.3831 34.27 40.3763 34.333C40.3553 34.4521 40.2998 34.5625 40.2165 34.6502C40.1293 34.7549 40.0269 34.8459 39.9128 34.9202C39.6335 35.1107 39.2944 35.1931 38.9588 35.152C38.618 35.098 38.3047 34.9326 38.0678 34.6818C37.968 34.582 37.8831 34.4683 37.8158 34.3442C37.7457 34.2364 37.7148 34.1077 37.728 33.9798C37.7595 33.7548 37.9508 33.6423 38.133 33.5747C38.3442 33.5099 38.565 33.4825 38.7855 33.4938L38.79 33.4847ZM58.05 48.6318H58.0433C57.7305 48.7443 57.474 48.7892 57.2558 48.8792C57.0387 48.9604 56.8587 49.118 56.7495 49.3225C56.6145 49.5588 56.502 49.9795 56.5358 50.695C56.6326 50.7593 56.7389 50.8079 56.8508 50.839C57.213 50.947 57.8228 51.019 58.5045 51.0078C59.8591 50.992 61.5285 50.686 62.415 50.2855C63.1418 49.957 63.8168 49.5295 64.4198 49.0165C61.4565 49.6105 59.7848 49.453 58.7565 49.0413C58.5022 48.9392 58.2642 48.8005 58.05 48.6295V48.6318ZM40.977 48.8252H40.9321C40.8195 48.8342 40.6553 48.8702 40.3403 49.2122C39.5978 50.0177 39.3413 50.5218 38.7293 50.9943C38.1218 51.4668 37.3275 51.7165 35.7435 52.0315C35.2418 52.1305 34.956 52.2407 34.7625 52.3285C34.8255 52.378 34.8188 52.3915 34.911 52.4388C35.1428 52.5625 35.442 52.6705 35.6805 52.7313C36.3623 52.8955 37.4805 53.089 38.6483 52.8955C39.8138 52.702 41.0288 52.1597 42.0638 50.7513C42.2438 50.5083 42.2618 50.1483 42.1156 49.7612C41.9648 49.3787 41.6408 49.0458 41.4113 48.9513C41.2739 48.8879 41.1273 48.8469 40.977 48.8298V48.8252Z" fill="#8C76D5"/>
</svg>
