<svg width="85" height="85" viewBox="0 0 85 85" fill="none" xmlns="http://www.w3.org/2000/svg">
<rect width="85" height="85" rx="42.5" fill="#7B4AE2" fill-opacity="0.2"/>
<path d="M59.7544 34.9095C59.215 34.7249 58.656 34.5502 58.0805 34.385C58.1751 34.0011 58.2619 33.6223 58.3391 33.2498C59.6062 27.1342 58.7778 22.2075 55.9487 20.5854C53.2359 19.03 48.7995 20.6517 44.3189 24.5287C43.888 24.9015 43.4559 25.2962 43.0241 25.7099C42.7363 25.4362 42.449 25.1717 42.1624 24.9187C37.4666 20.7732 32.7598 19.0262 29.9335 20.653C27.2234 22.2129 26.4208 26.8445 27.5614 32.6403C27.6715 33.2001 27.8003 33.7718 27.9459 34.3531C27.2797 34.5411 26.6366 34.7415 26.0213 34.9547C20.516 36.8631 17 39.8541 17 42.9564C17 46.1606 20.7744 49.3744 26.5086 51.3231C26.9611 51.4769 27.4307 51.6223 27.9146 51.7604C27.7575 52.389 27.6209 53.0051 27.5062 53.6059C26.4186 59.3011 27.268 63.8233 29.9709 65.3733C32.7628 66.9741 37.4483 65.3287 42.0108 61.3634C42.3714 61.0499 42.7333 60.7175 43.0959 60.3691C43.5658 60.819 44.035 61.2448 44.5017 61.6442C48.921 65.4254 53.2858 66.9523 55.9863 65.3979C58.7753 63.7926 59.6818 58.9347 58.505 53.0242C58.4151 52.5728 58.3105 52.1116 58.1931 51.6423C58.5221 51.5456 58.8451 51.4457 59.1601 51.3419C65.1214 49.3781 69 46.2034 69 42.9564C69 39.8428 65.3707 36.8318 59.7544 34.9095ZM58.4615 49.2454C58.1771 49.339 57.8854 49.4295 57.5881 49.5172C56.93 47.4457 56.0418 45.243 54.9549 42.9672C55.9921 40.7456 56.8459 38.5711 57.4856 36.5131C58.0176 36.6661 58.5339 36.8275 59.0314 36.9979C63.8433 38.6449 66.7786 41.0801 66.7786 42.9564C66.7786 44.9551 63.6086 47.5497 58.4615 49.2454ZM56.3258 53.4531C56.8461 56.0667 56.9205 58.4296 56.5758 60.2768C56.2661 61.9366 55.6432 63.0433 54.8731 63.4865C53.2344 64.4296 49.7299 63.2037 45.9504 59.97C45.5172 59.5993 45.0807 59.2035 44.6429 58.7846C46.1081 57.1913 47.5725 55.339 49.0017 53.2819C51.5155 53.0601 53.8905 52.6975 56.0443 52.2025C56.1504 52.6279 56.2446 53.0452 56.3258 53.4531ZM34.728 63.3235C33.1269 63.8857 31.8517 63.9018 31.0809 63.4599C29.4406 62.5193 28.7587 58.8884 29.6889 54.0178C29.7954 53.46 29.9222 52.8871 30.0684 52.3014C32.1985 52.7697 34.5561 53.1068 37.0759 53.3099C38.5148 55.3228 40.0214 57.173 41.5398 58.7931C41.2081 59.1115 40.8776 59.4147 40.549 59.7003C38.5315 61.4538 36.5097 62.6978 34.728 63.3235ZM27.2271 49.2332C24.6915 48.3715 22.5975 47.2516 21.1622 46.0296C19.8725 44.9314 19.2213 43.8411 19.2213 42.9564C19.2213 41.0738 22.0443 38.6725 26.7525 37.0404C27.3238 36.8423 27.9218 36.6557 28.5424 36.4804C29.1931 38.5849 30.0467 40.7852 31.0768 43.0102C30.0334 45.2682 29.1677 47.5036 28.5106 49.6328C28.0681 49.5063 27.6395 49.3732 27.2271 49.2332ZM29.7414 32.2161C28.7642 27.2505 29.4132 23.5045 31.0464 22.5645C32.7861 21.5632 36.6329 22.9909 40.6874 26.5704C40.9466 26.7992 41.2068 27.0386 41.4677 27.2864C39.9568 28.8993 38.4639 30.7357 37.0379 32.7368C34.5923 32.9621 32.2513 33.3242 30.0989 33.809C29.9636 33.2678 29.8437 32.736 29.7414 32.2161ZM52.1719 37.7231C51.6573 36.8394 51.1291 35.9766 50.5906 35.1374C52.2497 35.346 53.8393 35.6228 55.3321 35.9615C54.884 37.3896 54.3254 38.8828 53.6678 40.4135C53.1961 39.5231 52.6973 38.6254 52.1719 37.7231ZM43.0248 28.8648C44.0494 29.9685 45.0755 31.2008 46.0848 32.5378C45.0678 32.49 44.0381 32.4652 43 32.4652C41.9717 32.4652 40.9496 32.4895 39.9389 32.5364C40.9492 31.2118 41.9842 29.9812 43.0248 28.8648ZM33.8191 37.7383C33.3052 38.6245 32.8155 39.5173 32.3512 40.4119C31.7043 38.8865 31.1509 37.3865 30.6989 35.9382C32.1825 35.6081 33.7646 35.3381 35.4132 35.1336C34.8671 35.9805 34.3345 36.8496 33.8191 37.7381V37.7383ZM35.4607 50.9369C33.7574 50.748 32.1515 50.4919 30.6682 50.1709C31.1275 48.6967 31.6931 47.1647 32.3537 45.6065C32.8192 46.5004 33.3108 47.3936 33.8279 48.2817H33.828C34.3548 49.1864 34.9005 50.0727 35.4607 50.9369ZM43.0863 57.2038C42.0334 56.0743 40.9832 54.8249 39.9576 53.481C40.9532 53.5199 41.9683 53.5397 43 53.5397C44.0599 53.5397 45.1077 53.516 46.139 53.4704C45.1264 54.8385 44.104 56.0898 43.0863 57.2038ZM53.689 45.5271C54.3841 47.1022 54.97 48.6262 55.4352 50.0752C53.9275 50.4172 52.2996 50.6927 50.5845 50.8973C51.1243 50.0468 51.6572 49.1692 52.1808 48.2665C52.7105 47.3532 53.2135 46.4385 53.689 45.5271ZM50.2566 47.1631C49.4437 48.5644 48.6092 49.9021 47.762 51.1649C46.2189 51.2746 44.6248 51.3311 43 51.3311C41.3818 51.3311 39.8077 51.2811 38.292 51.1833C37.4106 49.904 36.558 48.5623 35.7503 47.1751H35.7505C34.9449 45.7918 34.2035 44.3967 33.5317 43.0095C34.2034 41.619 34.9428 40.2224 35.7437 38.8415L35.7435 38.8418C36.5466 37.4572 37.3917 36.122 38.2649 34.8507C39.8114 34.7345 41.3972 34.6739 42.9999 34.6739H43C44.6099 34.6739 46.1977 34.735 47.7438 34.8522C48.6036 36.1142 49.4431 37.445 50.2492 38.8298C51.0646 40.2301 51.8136 41.6174 52.4909 42.9781C51.8156 44.3621 51.0683 45.7634 50.2566 47.1631ZM54.8391 22.4988C56.5804 23.4973 57.2576 27.5239 56.1635 32.804C56.0937 33.1409 56.0151 33.4841 55.9298 33.8319C53.7724 33.337 51.4297 32.9687 48.977 32.7399C47.5482 30.7168 46.0675 28.8776 44.5813 27.2853C44.9809 26.9031 45.3799 26.5387 45.7772 26.1948C49.6162 22.873 53.2043 21.5615 54.8391 22.4988ZM43 38.3396C45.5644 38.3396 47.6434 40.4066 47.6434 42.9564C47.6434 45.5062 45.5644 47.5732 43 47.5732C40.4356 47.5732 38.3566 45.5062 38.3566 42.9564C38.3566 40.4066 40.4356 38.3396 43 38.3396Z" fill="#8C76D5"/>
</svg>
