<svg width="85" height="85" viewBox="0 0 85 85" fill="none" xmlns="http://www.w3.org/2000/svg">
<rect width="85" height="85" rx="42.5" fill="#7B4AE2" fill-opacity="0.2"/>
<g clip-path="url(#clip0_3104_106)">
<path d="M69.9831 48.2651C69.9662 48.7831 69.2794 49.3552 67.8822 50.0842C64.9999 51.5877 50.0757 57.7302 46.893 59.3823C43.7121 61.0428 41.9537 61.0259 39.4394 59.8211C36.925 58.6263 21.0439 52.2003 18.1785 50.8385C16.7543 50.1534 16.0253 49.5813 15.9983 49.0362V54.4936C15.9983 55.0387 16.7543 55.6091 18.1785 56.2959C21.0439 57.6678 36.9351 64.0837 39.4394 65.2784C41.9537 66.4833 43.7104 66.5002 46.893 64.8397C50.074 63.1876 64.9982 57.0434 67.8822 55.5416C69.3503 54.7856 70 54.1882 70 53.6516V48.2718C69.9989 48.2651 69.9932 48.2622 69.9831 48.2634V48.2651ZM69.9831 39.3702C69.9561 39.8799 69.2794 40.4519 67.8822 41.1894C64.9999 42.6828 50.0757 48.827 46.893 50.4791C43.7121 52.1396 41.9537 52.1227 39.4394 50.9279C36.925 49.7231 21.0439 43.3072 18.1785 41.9369C16.7543 41.2602 16.0253 40.6797 15.9983 40.1347V45.5921C15.9983 46.1371 16.7543 46.7176 18.1785 47.3943C21.0439 48.7662 36.925 55.1821 39.4394 56.3853C41.9537 57.5801 43.7104 57.5986 46.893 55.9466C50.074 54.2861 64.9982 48.1503 67.8822 46.6484C69.3503 45.884 70 45.2866 70 44.75V39.3702H69.9831ZM69.9831 30.1329C70.0101 29.5878 69.298 29.1052 67.8467 28.577C65.0438 27.5493 50.1989 21.6431 47.3588 20.5968C44.5204 19.559 43.3594 19.6029 40.0199 20.7993C36.6803 22.0042 20.8853 28.199 18.0739 29.2976C16.6682 29.8511 15.9814 30.3607 16.0084 30.9057V36.3631C16.0084 36.9082 16.756 37.4786 18.1887 38.1654C21.0456 39.5373 36.9351 45.9532 39.4495 47.1564C41.9537 48.3511 43.7205 48.3697 46.9032 46.7075C50.0757 45.0554 65.0084 38.9112 67.8923 37.4178C69.352 36.6534 70.0017 36.056 70.0017 35.5194V30.1312L69.9831 30.1329ZM35.3354 35.3017L47.8515 33.3864L44.0715 38.9231L35.3354 35.3017ZM63.012 30.3084L54.8125 33.5517L47.4128 30.6256L55.6039 27.3907L63.012 30.3084ZM41.2855 24.9472L40.0722 22.7146L43.8522 24.1912L47.4111 23.0302L46.4442 25.3336L50.074 26.6954L45.3979 27.1781L44.3432 29.7009L42.6557 26.8878L37.2507 26.4052L41.2855 24.9472ZM31.9604 28.1028C35.661 28.1028 38.6496 29.2638 38.6496 30.6864C38.6496 32.1191 35.6526 33.2784 31.9604 33.2784C28.2681 33.2784 25.2711 32.1174 25.2711 30.6864C25.2711 29.2621 28.2681 28.1028 31.9604 28.1028Z" fill="#8C76D5"/>
</g>
<defs>
<clipPath id="clip0_3104_106">
<rect width="54" height="54" fill="white" transform="translate(16 16)"/>
</clipPath>
</defs>
</svg>
