<svg width="85" height="85" viewBox="0 0 85 85" fill="none" xmlns="http://www.w3.org/2000/svg">
<rect width="85" height="85" rx="42.5" fill="#7B4AE2" fill-opacity="0.2"/>
<path d="M42.9998 29C36.7698 29 32.8965 32.1033 31.3332 38.3333C33.6665 35.23 36.3965 34.0633 39.4998 34.8333C41.2732 35.2767 42.5565 36.56 43.9565 37.9833C46.2432 40.3167 48.8332 43 54.6665 43C60.8965 43 64.7698 39.8967 66.3332 33.6667C63.9998 36.77 61.2698 37.9367 58.1665 37.1667C56.3932 36.7233 55.1332 35.44 53.7098 34.0167C51.4232 31.6833 48.8332 29 42.9998 29ZM31.3332 43C25.1032 43 21.2298 46.1033 19.6665 52.3333C21.9998 49.23 24.7298 48.0633 27.8332 48.8333C29.6065 49.2767 30.8665 50.56 32.2898 51.9833C34.5765 54.3167 37.1665 57 42.9998 57C49.2298 57 53.1032 53.8967 54.6665 47.6667C52.3332 50.77 49.6032 51.9367 46.4998 51.1667C44.7265 50.7233 43.4665 49.44 42.0432 48.0167C39.7565 45.6833 37.1665 43 31.3332 43Z" fill="#8C76D5"/>
</svg>
