<svg width="85" height="85" viewBox="0 0 85 85" fill="none" xmlns="http://www.w3.org/2000/svg">
<rect width="85" height="85" rx="42.5" fill="#7B4AE2" fill-opacity="0.2"/>
<g clip-path="url(#clip0_163_438)">
<path fill-rule="evenodd" clip-rule="evenodd" d="M60.7188 21H25.2812C23.4691 21 22 22.4691 22 24.2812V59.7188C22 61.5309 23.4691 63 25.2812 63H60.7188C62.5309 63 64 61.5309 64 59.7188V24.2812C64 22.4691 62.5309 21 60.7188 21ZM46.6944 58.4218V53.8904C47.5163 54.5797 48.4091 55.0965 49.373 55.441C50.3367 55.7857 51.3098 55.9579 52.2923 55.9579C52.8687 55.9579 53.3719 55.9059 53.8017 55.8021C54.2316 55.6982 54.5907 55.5543 54.8788 55.3703C55.1669 55.1862 55.382 54.969 55.5235 54.7189C55.6653 54.4688 55.7362 54.1972 55.7362 53.9047C55.7362 53.5082 55.6228 53.1541 55.3961 52.8426C55.1693 52.531 54.8599 52.2431 54.4678 51.9788C54.0757 51.7145 53.6104 51.4597 53.0718 51.2142C52.5333 50.9686 51.9522 50.7186 51.3286 50.4637C49.7413 49.8028 48.5581 48.9956 47.7786 48.0423C46.999 47.0887 46.6094 45.937 46.6094 44.5871C46.6094 43.5297 46.822 42.6211 47.2471 41.8612C47.6723 41.1013 48.251 40.4759 48.9832 39.9848C49.7154 39.4939 50.5634 39.1328 51.5271 38.9017C52.4909 38.6704 53.5112 38.5547 54.5882 38.5547C55.6464 38.5547 56.5842 38.6183 57.4014 38.7458C58.2186 38.8733 58.9721 39.0692 59.6619 39.3335V43.5675C59.3218 43.3315 58.9508 43.1238 58.5494 42.9445C58.1477 42.765 57.7345 42.6164 57.3094 42.4984C56.8841 42.3803 56.4613 42.293 56.0408 42.2364C55.6205 42.1798 55.2213 42.1514 54.8433 42.1514C54.3238 42.1514 53.8513 42.201 53.4262 42.3001C53.0009 42.3993 52.642 42.5385 52.3491 42.7179C52.0562 42.8973 51.8294 43.112 51.6687 43.3622C51.5081 43.6124 51.4279 43.8931 51.4279 44.2047C51.4279 44.5446 51.5176 44.8489 51.6971 45.118C51.8766 45.3871 52.1317 45.642 52.4625 45.8827C52.7931 46.1235 53.1947 46.3595 53.667 46.5908C54.1395 46.8221 54.6732 47.0603 55.2684 47.3059C56.081 47.6457 56.8109 48.0068 57.4582 48.3891C58.1052 48.7715 58.6604 49.2033 59.1232 49.6849C59.5862 50.1662 59.9406 50.7161 60.1862 51.3345C60.4318 51.9529 60.5547 52.6728 60.5547 53.4941C60.5547 54.6269 60.3398 55.578 59.9099 56.3473C59.4799 57.1167 58.8965 57.7398 58.1595 58.2166C57.4227 58.6932 56.5652 59.0354 55.5874 59.2431C54.6096 59.4508 53.5773 59.5547 52.4909 59.5547C51.3759 59.5547 50.3154 59.4604 49.3092 59.2715C48.303 59.0827 47.4313 58.7995 46.6944 58.4218ZM44.9688 42.6139H39.1416V59.2266H34.5253V42.6139H28.7266V38.8828H44.9688V42.6139Z" fill="#8C76D5"/>
</g>
<defs>
<clipPath id="clip0_163_438">
<rect width="42" height="42" fill="white" transform="translate(22 21)"/>
</clipPath>
</defs>
</svg>
