<svg width="50" height="50" viewBox="0 0 50 50" fill="none" xmlns="http://www.w3.org/2000/svg">
<g clip-path="url(#clip0_163_490)">
<mask id="mask0_163_490" style="mask-type:luminance" maskUnits="userSpaceOnUse" x="0" y="0" width="50" height="50">
<path d="M0 0H50V50H0V0Z" fill="white"/>
</mask>
<g mask="url(#mask0_163_490)">
<path d="M0.475159 17.4374C0.475159 17.4374 -0.741508 16.5478 0.718909 15.3645L4.12516 12.2853C4.12516 12.2853 5.09807 11.2499 6.12932 12.152L37.5481 36.1978V47.727C37.5481 47.727 37.5335 49.5395 35.2356 49.3395L0.475159 17.4374Z" fill="#8C76D5"/>
<path d="M8.57486 24.8688L0.474863 32.3105C0.474863 32.3105 -0.358471 32.9355 0.474863 34.0542L4.23528 37.5125C4.23528 37.5125 5.12903 38.4813 6.44778 37.3771L15.0332 30.798L8.57486 24.8688ZM22.7915 24.9292L37.6457 13.4667L37.5478 1.99796C37.5478 1.99796 36.9124 -0.506207 34.7978 0.79796L15.0332 18.9792L22.7915 24.9292Z" fill="#8C76D5"/>
<path d="M35.2333 49.3543C36.0958 50.2459 37.1416 49.9543 37.1416 49.9543L48.7166 44.1897C50.1979 43.1688 49.9895 41.9022 49.9895 41.9022V7.4751C49.9895 5.9626 48.4583 5.43968 48.4583 5.43968L38.4249 0.550101C36.2333 -0.818649 34.7979 0.798018 34.7979 0.798018C34.7979 0.798018 36.6437 -0.545732 37.5479 1.99802V47.5188C37.5479 47.8313 37.4812 48.1376 37.3499 48.4147C37.0854 48.9543 36.5124 49.4563 35.1374 49.248L35.2333 49.3543Z" fill="#8C76D5"/>
</g>
</g>
<defs>
<clipPath id="clip0_163_490">
<rect width="50" height="50" fill="white"/>
</clipPath>
</defs>
</svg>
